<svg width="154" height="125" viewBox="0 0 154 125" fill="none" xmlns="http://www.w3.org/2000/svg">
<g clip-path="url(#clip0_1277_715)">
<path d="M138.3 75.5C131.3 66.2 124 56.8 117 47.5C122.4 40.5 127.6 33.8 132.9 26.8C137.7 20.4 142.7 14.1 147.7 7.7L153.6 0L144 0.2H125.9C121.6 0.2 118.1 0.2 114.8 0H113.9C108.2 0 104.1 2.3 100.8 7.1C97.3 12.1 93.8 16.9 89.7 22C88 24.1 86.4 26.2 84.7 28.4L82.5 31.3L84.7 34.2C89.1 40.2 93.6 46 98 51.8L106.1 62.6C103 66.7 99.6 70.9 96.3 75.2L94.1 78.1L96.3 81C97 82 97.8 82.9 98.5 83.9C100.5 86.6 102.6 89.3 104.4 91.8C106.3 94.3 108.7 95.7 111.6 95.7H143.8L152.9 95.5L147.2 88L138.3 75.6V75.5ZM50.2 3.9C48.2 1.2 45.8 0 42.6 0H0L5.9 7.7C13.1 17 20.2 26.2 27.2 35.3C34 44.2 40.9 53.1 47.8 62C33.9 80.3 20 98.5 6 117L0.3 124.7H42.3C46.2 124.7 48.4 122.6 49.7 120.8L50.1 120.4C63.6 102.8 77.5 84.7 91.2 66.9C93.1 64.6 94.3 60.9 91.2 56.7C76.2 37.8 62.9 20.4 50.3 3.8L50.2 3.9Z" fill="white"/>
</g>
<defs>
<clipPath id="clip0_1277_715">
<rect width="153.6" height="124.7" fill="white"/>
</clipPath>
</defs>
</svg>
