<?xml version="1.0" encoding="utf-8"?>
<svg xmlns="http://www.w3.org/2000/svg" version="1.1" id="_x32_" viewBox="0 127.89 512 256.21" xmlns:bx="https://boxy-svg.com" width="512px" height="256.21px"><defs><bx:export><bx:file format="svg"/></bx:export></defs><style type="text/css">
	.st0{fill:#000000;}
</style><g><path class="st0" d="M 414.78 182.884 C 415.522 183.252 455.927 150.027 455.522 149.761 C 445.257 143.015 434.076 137.421 421.986 133.693 C 409.977 129.884 397.144 127.895 383.898 127.895 C 366.916 127.895 350.604 131.211 335.701 137.26 C 334.455 137.752 333.299 138.246 332.143 138.828 C 318.727 144.707 306.468 152.988 295.955 162.845 C 292.559 166.072 289.332 169.468 286.097 173.277 C 280.388 179.819 274.509 187.356 268.792 194.973 C 267.635 196.541 266.39 198.199 265.234 199.777 C 262.088 204.079 232.022 248.135 226.725 256.003 C 224.073 259.973 220.927 264.445 217.53 269.33 C 216.786 270.406 215.962 271.57 215.137 272.726 C 209.501 280.757 203.209 289.207 197.411 296.663 C 194.516 300.383 191.613 303.86 189.13 306.763 C 186.567 309.739 184.246 312.141 182.588 313.717 C 175.472 320.421 167.102 325.888 157.916 329.616 C 148.722 333.344 138.702 335.414 128.1 335.414 C 120.814 335.414 113.863 334.134 107.156 332.657 C 106.407 332.492 89.03 378.147 90.013 378.388 C 102.224 381.385 114.855 384.105 128.101 384.105 C 145.075 384.105 161.394 380.789 176.297 374.749 C 191.121 368.7 204.536 359.925 215.963 349.243 L 216.043 349.162 C 219.44 346.016 222.586 342.531 225.901 338.722 C 231.61 332.18 237.489 324.651 243.206 317.033 C 244.363 315.456 245.608 313.879 246.764 312.31 C 249.91 307.919 291.071 247.552 294.46 242.668 C 295.212 241.592 296.037 240.436 296.861 239.272 C 302.498 231.322 308.789 222.792 314.587 215.344 C 317.482 211.616 320.385 208.138 322.868 205.243 C 325.432 202.259 327.753 199.857 329.41 198.281 C 336.526 191.577 344.896 186.191 354.083 182.383 C 356.323 181.477 358.555 180.734 360.875 179.981 C 368.161 177.831 375.859 176.674 383.898 176.593 C 394.911 176.673 405.575 178.325 414.78 182.884 Z"/><path class="st0" d="M 75.342 147.494 C 75.159 147.569 101.158 189.893 101.672 189.724 C 109.083 187.288 116.988 186.086 125.269 186.086 C 135.871 186.166 145.891 188.156 155.085 191.876 C 164.272 195.684 172.641 201.07 179.757 207.774 C 181.415 209.351 183.736 211.833 186.299 214.736 C 190.771 219.952 196.068 226.656 201.373 233.7 C 203.443 236.514 205.513 239.328 207.583 242.223 C 215.532 230.635 229.441 210.264 236.727 199.743 C 235.49 198.085 234.245 196.436 233.007 194.778 C 229.691 190.548 226.376 186.497 223.069 182.769 C 219.753 178.96 216.607 175.564 213.211 172.337 C 201.785 161.565 188.289 152.792 173.465 146.751 C 158.561 140.702 142.243 137.386 125.269 137.386 C 107.632 137.386 90.813 141.128 75.342 147.494 Z"/><path class="st0" d="M 270.011 285.168 C 269.828 285.243 295.827 327.567 296.341 327.398 C 303.752 324.962 311.657 323.76 319.938 323.76 C 330.54 323.84 340.56 325.83 349.754 329.55 C 358.941 333.358 367.31 338.744 374.426 345.448 C 376.084 347.025 378.405 349.507 380.968 352.41 C 385.44 357.626 390.737 364.33 396.042 371.374 C 398.112 374.188 400.182 377.002 402.252 379.897 C 410.201 368.309 424.11 347.938 431.396 337.417 C 430.159 335.759 428.914 334.11 427.676 332.452 C 424.36 328.222 421.045 324.171 417.738 320.443 C 414.422 316.634 411.276 313.238 407.88 310.011 C 396.454 299.239 382.958 290.466 368.134 284.425 C 353.23 278.376 336.912 275.06 319.938 275.06 C 302.301 275.06 285.482 278.802 270.011 285.168 Z" style="transform-box: fill-box; transform-origin: 50% 50%;" transform="matrix(-1, 0, 0, -1, -0.000014, -0.000029)"/></g></svg>