<svg width="21" height="32" viewBox="0 0 21 32" fill="none" xmlns="http://www.w3.org/2000/svg">
<path d="M1.06371 18.0343C0.866726 18.5603 0 21.0429 0 24C0 26.7856 1.48002 28.1151 2.12742 28.5634V31.4667C2.12742 31.7612 2.36556 32 2.65928 32H17.5512C17.845 32 18.0831 31.7612 18.0831 31.4667V28.5634C18.7305 28.1151 20.2105 26.7856 20.2105 24C20.2105 21.0429 19.3438 18.5603 19.1468 18.0343V13.3333C19.1468 12.5161 18.9698 11.9035 18.6102 11.4749C19.2822 10.1551 20.2105 7.87233 20.2105 5.33333C20.2105 1.64487 19.7184 0 18.615 0C15.7343 0 13.8072 4.347 12.6511 8.29753C12.321 7.20107 11.3049 6.4 10.1053 6.4C8.9056 6.4 7.88948 7.20107 7.5594 8.29753C6.40328 4.347 4.47623 0 1.59557 0C0.4921 0 0 1.64487 0 5.33333C0 7.8724 0.928354 10.1553 1.60042 11.475C1.24062 11.9038 1.06371 12.5163 1.06371 13.3333V18.0343ZM10.1053 30.9333C8.95978 30.9333 8.27468 30.6062 7.8823 29.8141C8.08288 29.8484 8.29203 29.8667 8.5097 29.8667C9.01729 29.8667 9.65538 29.6504 10.1053 28.7491C10.5551 29.6504 11.1932 29.8667 11.7008 29.8667C11.9185 29.8667 12.1276 29.8484 12.3282 29.8141C11.9358 30.6062 11.2507 30.9333 10.1053 30.9333ZM10.1053 23.4667C9.31266 23.4667 7.44598 22.0719 7.44472 20.8051C7.53979 20.5803 8.59792 20.2667 10.1053 20.2667C10.7664 20.2667 11.4223 20.3257 11.9047 20.4285C12.5678 20.5698 12.7514 20.755 12.7643 20.7967C12.7644 20.7969 12.7645 20.7981 12.7645 20.8C12.7645 22.0719 10.8979 23.4667 10.1053 23.4667ZM13.2723 22.4532C13.5422 23.4351 13.8283 24.7918 13.8283 26.1333C13.8283 27.3499 13.4591 28.8 11.7008 28.8C10.9007 28.8 10.6386 27.0031 10.6371 26.1329V24.4555C11.535 24.2141 12.6264 23.4317 13.2723 22.4532ZM9.57341 24.4555V26.1329C9.57188 27.0031 9.30981 28.8 8.5097 28.8C6.75138 28.8 6.38227 27.3499 6.38227 26.1333C6.38227 24.7918 6.66828 23.4351 6.93826 22.4532C7.58413 23.4317 8.67557 24.2141 9.57341 24.4555ZM18.7731 1.46547C18.9423 1.96347 19.1468 3.0398 19.1468 5.33333C19.1468 7.5894 18.3354 9.64393 17.7176 10.8812C17.0987 10.6674 16.3345 10.6667 15.4238 10.6667H15.1776C15.9373 7.83773 17.9778 3.2198 18.7731 1.46547ZM17.6653 1.33013C16.8591 3.11713 15.2232 6.85967 14.3732 9.6204C14.1609 9.33187 13.8925 9.08733 13.5837 8.90393C14.7498 4.7974 16.1927 2.1408 17.6653 1.33013ZM7.97784 9.6C8.27156 9.6 8.5097 9.3612 8.5097 9.06667C8.5097 8.18447 9.22551 7.46667 10.1053 7.46667C10.985 7.46667 11.7008 8.18447 11.7008 9.06667C11.7008 9.3612 11.939 9.6 12.2327 9.6C13.1124 9.6 13.8283 10.3178 13.8283 11.2C13.8283 11.9312 13.3358 12.5685 12.6306 12.7499C12.3875 12.8125 12.2211 13.037 12.2314 13.2885C12.232 13.3033 12.2327 13.3183 12.2327 13.3333C12.2327 13.9215 11.7555 14.4 11.169 14.4C10.907 14.4 10.6552 14.3035 10.46 14.1283C10.3591 14.0376 10.2322 13.9923 10.1053 13.9923C9.97835 13.9923 9.8515 14.0376 9.75051 14.1283C9.55526 14.3035 9.30349 14.4 9.04155 14.4C8.45505 14.4 7.97784 13.9215 7.97784 13.3333C7.97784 13.3183 7.9785 13.3033 7.9791 13.2885C7.98941 13.037 7.823 12.8125 7.57988 12.7499C6.8747 12.5685 6.38227 11.9312 6.38227 11.2C6.38227 10.3178 7.09808 9.6 7.97784 9.6ZM6.62686 8.90387C6.31805 9.08727 6.04966 9.3318 5.83732 9.62033C4.98735 6.8596 3.35142 3.11713 2.54526 1.33013C4.01784 2.1408 5.46076 4.7974 6.62686 8.90387ZM1.06371 5.33333C1.06371 3.0398 1.26821 1.96347 1.43741 1.46547C2.23273 3.2196 4.27313 7.8372 5.03289 10.6667H4.7867C3.8759 10.6667 3.11156 10.6674 2.49287 10.8811C1.87512 9.64387 1.06371 7.58933 1.06371 5.33333ZM2.0894 18.3314C2.11453 18.2685 2.12742 18.2012 2.12742 18.1333V17.0667H3.19114V17.6C3.19114 18.4822 3.90695 19.2 4.7867 19.2C5.66646 19.2 6.38227 18.4822 6.38227 17.6V16.5333C6.38227 16.2388 6.14413 16 5.85042 16H3.72299H2.12742V13.3333C2.12742 12.4317 2.37593 12.1549 2.56355 12.0249C2.98258 11.7333 3.81866 11.7333 4.7867 11.7333H5.37234C5.54613 12.5903 6.13084 13.3125 6.93833 13.6554C7.09363 14.6794 7.97764 15.4667 9.04155 15.4667C9.41811 15.4667 9.78422 15.367 10.1053 15.1809C10.4263 15.367 10.7924 15.4667 11.169 15.4667C12.2329 15.4667 13.1169 14.6794 13.2722 13.6554C14.0797 13.3125 14.6644 12.5903 14.8382 11.7333H15.4238C16.3919 11.7333 17.2279 11.7333 17.6476 12.0253C17.8346 12.1549 18.0831 12.4317 18.0831 13.3333V16H16.4875H14.3601C14.0664 16 13.8283 16.2388 13.8283 16.5333V17.6C13.8283 18.4822 14.5441 19.2 15.4238 19.2C16.3036 19.2 17.0194 18.4822 17.0194 17.6V17.0667H18.0831V18.1333C18.0831 18.2009 18.096 18.2683 18.121 18.3311C18.1313 18.3569 19.1468 20.9481 19.1468 24C19.1468 26.8049 17.385 27.7523 17.3134 27.7897C17.1332 27.8799 17.0194 28.0647 17.0194 28.2667V30.9333H12.8642C13.2228 30.5075 13.4768 29.9507 13.6333 29.2561C13.7758 29.1462 13.9084 29.0228 14.0291 28.8845C14.6016 28.2283 14.892 27.3027 14.892 26.1333C14.892 23.6247 14.0054 21.1657 13.8221 20.6843C13.6958 19.3965 11.4561 19.2 10.1053 19.2C9.01649 19.2 6.52414 19.3477 6.38839 20.6844C6.20516 21.1657 5.31856 23.6248 5.31856 26.1333C5.31856 27.3027 5.60889 28.2283 6.1815 28.8845C6.30216 29.0229 6.43479 29.1462 6.57726 29.2561C6.73376 29.9507 6.98779 30.5075 7.34639 30.9333H3.19114V28.2667C3.19114 28.0647 3.07732 27.8799 2.89715 27.7897C2.8788 27.7805 1.06371 26.8376 1.06371 24C1.06371 20.9481 2.07922 18.3569 2.0894 18.3314ZM4.25485 17.6V17.0667H5.31856V17.6C5.31856 17.8941 5.07996 18.1333 4.7867 18.1333C4.49345 18.1333 4.25485 17.8941 4.25485 17.6ZM15.9557 17.0667V17.6C15.9557 17.8941 15.7171 18.1333 15.4238 18.1333C15.1306 18.1333 14.892 17.8941 14.892 17.6V17.0667H15.9557Z" fill="#B87D53"/>
</svg>
