<svg version="1.1" xmlns="http://www.w3.org/2000/svg" viewBox="87.96 56.43 222.98 231.35">  <path d="m87.958 235.42 1.9312 52.362h87.519l-3.2169-50.308c-12.252-4.5712-21.978-13.473-29.176-26.707-7.1983-13.234-10.88-31.711-11.045-55.43 0.27163-25.712 6.3213-46.46 18.14-62.239 11.817-15.781 27.758-23.895 47.822-24.345 8.7311-0.2199 18.079 2.1718 28.046 7.1892 9.9638 5.0175 18.531 14.005 25.697 26.963 7.1672 12.957 10.918 31.234 11.255 54.827 0 22.061-3.1108 39.714-9.4916 52.961-6.3821 13.248-16.303 22.174-29.763 26.78l-4.1832 50.308h87.519l1.9312-52.362h-7.7222c0 6.417-1.6634 12.064-5.1481 16.941-3.486 4.8765-10.028 7.4428-19.627 7.7002h-43.117l1.6091-14.716c20.291-6.3381 36.098-17.447 47.421-33.326 11.321-15.878 17.073-35.456 17.254-58.735-0.54327-29.748-10.038-53.236-28.494-70.466-18.457-17.228-42.637-26.024-72.539-26.386-31.841 0.73729-56.923 10.414-75.246 29.012-18.324 18.599-27.67 41.669-28.04 69.208 0.31044 18.682 4.0267 34.419 11.129 47.207 7.1039 12.79 15.699 22.773 25.788 29.951 10.089 7.1776 19.77 11.689 29.044 13.534l0.32338 14.716h-42.151c-8.7544 0-15.136-2.1174-19.145-6.289-4.0085-4.1702-6.2075-10.288-6.5955-18.352z"/> </svg>