<svg width="590" height="187" viewBox="0 0 590 187" fill="none" xmlns="http://www.w3.org/2000/svg">
<path d="M282.439 90.3089C278.922 88.6064 274.429 87.7439 269.097 87.7439H253.924C249.882 87.7439 246.649 86.6189 244.339 84.4514L244.227 84.3389C241.969 81.9614 240.882 79.2839 240.882 76.1564C240.882 73.0289 242.007 70.1414 244.227 67.8014C246.462 65.4239 249.529 64.2239 253.309 64.2239H290.644V56.1164H251.922C247.714 56.1164 244.099 57.0914 240.867 59.0789C237.634 60.9689 235.189 63.4064 233.404 66.5114C231.619 69.6239 230.734 72.9164 230.734 76.6064C230.734 80.9339 231.657 84.6014 233.494 87.5264C235.467 90.5039 238.084 92.7314 241.482 94.3589C245.014 95.8589 249.207 96.6239 253.924 96.6239H269.884C272.569 96.6239 274.962 97.2389 276.987 98.4614C279.057 99.5639 280.594 101.139 281.614 103.141C282.612 105.016 283.077 106.921 283.077 109.156C283.077 111.391 282.529 113.634 281.442 115.674C280.354 117.736 278.682 119.454 276.499 120.804C274.452 122.019 271.947 122.619 269.112 122.619H233.187V130.711H270.822C275.329 130.711 279.132 129.699 282.454 127.621C285.912 125.521 288.507 122.904 290.404 119.566C292.324 116.139 293.239 112.584 293.239 108.684C293.239 104.154 292.279 100.276 290.419 97.2014C288.672 94.1714 286.054 91.8989 282.447 90.2939L282.424 90.3089H282.439Z" fill="black"/>
<path d="M371.577 59.5139C365.75 56.0264 358.91 54.2489 351.26 54.2489C343.61 54.2489 336.785 56.0264 330.92 59.5289C325.07 62.9189 320.375 67.6589 316.955 73.6139C313.535 79.4414 311.802 86.1089 311.802 93.4139C311.802 100.719 313.535 107.461 316.955 113.379C320.375 119.221 325.077 123.961 330.92 127.464C336.5 130.726 343.025 132.444 350.285 132.579H351.26C358.91 132.594 365.735 130.891 371.577 127.486C377.54 123.984 382.235 119.244 385.565 113.424C388.985 107.484 390.717 100.764 390.717 93.4439C390.717 86.1239 388.985 79.2839 385.565 73.4564C382.235 67.6289 377.54 62.9489 371.577 59.5439V59.5214V59.5139ZM380.397 93.4364C380.397 99.2039 379.175 104.506 376.752 109.209C374.33 113.836 370.91 117.564 366.605 120.316C362.315 123.054 356.997 124.494 351.245 124.494C345.492 124.494 340.34 123.091 335.885 120.316C331.58 117.564 328.16 113.821 325.715 109.194C323.307 104.514 322.07 99.2114 322.07 93.4439C322.07 87.6764 323.292 82.4339 325.715 77.8439C328.137 73.1039 331.58 69.3014 335.907 66.5489C340.34 63.7739 345.515 62.3939 351.245 62.3939C356.975 62.3939 362.24 63.7964 366.605 66.5714C370.932 69.3464 374.352 73.1264 376.775 77.8289C379.182 82.4339 380.42 87.6764 380.42 93.4514H380.397V93.4364Z" fill="black"/>
<path d="M465.98 58.4864C460.827 55.6964 454.76 54.2714 447.912 54.2714C441.065 54.2714 435.072 55.6964 429.807 58.5239C424.527 61.2389 420.485 64.9889 417.455 69.9314C414.56 74.8364 413.09 80.6639 413.09 87.2564V130.741H423.245V87.4064C423.245 82.3139 424.392 77.8364 426.65 74.1239C428.982 70.3439 432.065 67.4039 435.807 65.3564C439.602 63.3539 443.667 62.3414 447.912 62.3414C452.157 62.3414 456.185 63.3539 459.867 65.3564C463.685 67.3814 466.767 70.3214 469.04 74.1389C471.387 77.8439 472.572 82.2839 472.572 87.3764V130.711H482.742V87.2264C482.742 80.6564 481.22 74.8064 478.227 69.9014C475.295 64.9364 471.29 61.2089 465.987 58.4564L465.972 58.4789L465.98 58.4864Z" fill="black"/>
<path d="M519.747 56.1089H509.442V130.726H519.747V56.1089Z" fill="black"/>
<path d="M566.817 68.2064C571.347 65.5664 576.477 64.2164 582.102 64.2164H589.812V56.1089H582.575C574.812 56.1089 567.777 57.7964 561.725 61.1114C555.672 64.4114 550.82 68.9564 547.287 74.5964C543.792 80.1014 542.022 86.4314 542.022 93.4214C542.022 100.411 543.792 106.771 547.287 112.396C550.805 117.939 555.672 122.416 561.725 125.731C567.027 128.611 577.407 130.734 582.05 130.734H589.812V122.626H582.102C576.5 122.626 571.347 121.336 566.802 118.786C562.4 116.146 558.815 112.569 556.16 108.166C553.625 103.749 552.327 98.7839 552.327 93.4064C552.327 88.0289 553.625 83.0489 556.182 78.6314C558.815 74.2514 562.407 70.7264 566.825 68.1989V68.2214L566.817 68.2064Z" fill="black"/>
<path d="M112.37 115.989C77.2547 126.534 48.2073 141.916 30.0198 159.939L29.2173 160.741C34.0548 165.316 39.3573 169.411 45.0873 172.891L46.3173 171.384C51.2823 165.316 56.6073 159.459 62.1497 153.939C77.0297 139.111 94.0547 126.279 112.385 115.974L112.362 115.989H112.37Z" fill="black"/>
<path d="M0.5 100.366C1.9025 119.169 8.88498 136.411 19.8425 150.436L20.345 149.934C31.6025 138.826 46.2574 128.731 63.9349 119.934C79.4299 112.216 97.22 105.594 116.397 100.366H0.5Z" fill="black"/>
<path d="M71.9673 23.0864C103.385 54.3914 142.925 75.0914 186.297 82.9439C181.07 36.5339 141.567 0.436371 93.5673 0.436371C80.8923 0.436371 68.8098 2.96387 57.7773 7.52387C62.2548 12.9164 67.0398 18.1664 71.9673 23.0939V23.0864Z" fill="black"/>
<path d="M30.0201 26.9189C48.2076 44.9639 77.255 60.3239 112.37 70.8914C94.04 60.5714 77.015 47.7539 62.135 32.9264C56.6075 27.4214 51.2901 21.5639 46.3026 15.4814L45.0725 13.9739C39.3426 17.4539 34.0401 21.5414 29.2251 26.1164L30.0276 26.9189H30.0201Z" fill="black"/>
<path d="M74.9897 163.771C70.0397 168.699 65.2623 173.949 60.7998 179.341C71.8173 183.901 83.9148 186.429 96.5898 186.429C144.59 186.429 184.092 150.324 189.335 103.899C145.97 111.751 106.43 132.451 75.0048 163.756L74.9897 163.771Z" fill="black"/>
<path d="M63.9423 66.9239C46.2648 58.1264 31.6098 48.0239 20.3523 36.9239L19.8498 36.4214C8.89235 50.4464 1.90982 67.6889 0.507324 86.4914H116.382C97.2123 81.2639 79.4373 74.6414 63.9198 66.9014L63.9348 66.9239H63.9423Z" fill="black"/>
<path d="M232.52 172.921V151.921H235.04V170.401H244.445V172.921H232.52Z" fill="black"/>
<path d="M278.195 151.921H281.24L288.875 172.921H286.205L284.645 168.631H274.79L273.245 172.921H270.56L278.195 151.921ZM275.728 166.111H283.723L279.718 155.146L275.728 166.111Z" fill="black"/>
<path d="M315.612 172.921V151.921H322.857C323.899 151.921 324.844 152.131 325.699 152.559C326.554 152.986 327.229 153.601 327.732 154.411C328.234 155.221 328.482 156.189 328.482 157.321C328.482 157.929 328.377 158.521 328.174 159.084C327.972 159.646 327.687 160.134 327.334 160.539C326.982 160.944 326.577 161.214 326.127 161.356C326.757 161.514 327.289 161.799 327.732 162.204C328.174 162.609 328.527 163.081 328.804 163.621C329.082 164.161 329.277 164.724 329.397 165.316C329.517 165.909 329.577 166.479 329.577 167.026C329.577 168.189 329.314 169.209 328.789 170.094C328.264 170.979 327.559 171.669 326.682 172.171C325.804 172.674 324.829 172.921 323.772 172.921H315.612ZM318.132 160.411H322.617C323.539 160.411 324.327 160.141 324.979 159.594C325.632 159.046 325.962 158.289 325.962 157.306C325.962 156.249 325.632 155.454 324.979 154.929C324.327 154.404 323.539 154.141 322.617 154.141H318.132V160.411ZM318.132 170.701H323.547C324.237 170.701 324.867 170.521 325.429 170.169C325.992 169.816 326.449 169.329 326.787 168.706C327.124 168.084 327.297 167.386 327.297 166.606C327.297 165.916 327.124 165.264 326.787 164.649C326.449 164.034 325.992 163.539 325.429 163.156C324.867 162.774 324.237 162.586 323.547 162.586H318.132V170.701Z" fill="black"/>
<path d="M363.965 173.311C362.832 173.311 361.745 173.131 360.695 172.779C359.645 172.426 358.73 171.916 357.942 171.256C357.155 170.596 356.6 169.809 356.27 168.901L358.625 168.016C358.827 168.579 359.195 169.066 359.742 169.479C360.29 169.891 360.927 170.214 361.669 170.446C362.412 170.679 363.177 170.791 363.965 170.791C364.865 170.791 365.705 170.641 366.477 170.349C367.25 170.056 367.88 169.644 368.36 169.111C368.84 168.579 369.079 167.964 369.079 167.251C369.079 166.539 368.832 165.924 368.329 165.459C367.827 164.994 367.19 164.626 366.41 164.349C365.63 164.071 364.812 163.861 363.965 163.711C362.517 163.471 361.219 163.126 360.072 162.684C358.924 162.241 358.024 161.619 357.357 160.816C356.689 160.014 356.36 158.964 356.36 157.651C356.36 156.429 356.712 155.364 357.417 154.456C358.122 153.549 359.052 152.844 360.215 152.341C361.377 151.839 362.622 151.591 363.965 151.591C365.075 151.591 366.154 151.764 367.197 152.109C368.239 152.454 369.162 152.956 369.965 153.616C370.767 154.276 371.337 155.079 371.689 156.031L369.305 156.901C369.102 156.331 368.735 155.836 368.187 155.424C367.64 155.011 367.002 154.689 366.267 154.464C365.532 154.239 364.767 154.126 363.965 154.126C363.072 154.119 362.247 154.261 361.474 154.561C360.702 154.861 360.079 155.274 359.599 155.806C359.119 156.339 358.88 156.954 358.88 157.651C358.88 158.491 359.105 159.136 359.547 159.579C359.99 160.021 360.597 160.359 361.369 160.576C362.142 160.794 363.005 160.989 363.965 161.161C365.322 161.394 366.582 161.754 367.744 162.249C368.907 162.744 369.837 163.404 370.542 164.221C371.247 165.039 371.599 166.051 371.599 167.251C371.599 168.451 371.247 169.539 370.542 170.446C369.837 171.354 368.907 172.059 367.744 172.561C366.582 173.064 365.322 173.311 363.965 173.311Z" fill="black"/>
</svg>
