<?xml version="1.0" encoding="utf-8"?>
<!-- Generator: Adobe Illustrator 28.0.0, SVG Export Plug-In . SVG Version: 6.00 Build 0)  -->
<svg version="1.1" id="Layer_1" xmlns="http://www.w3.org/2000/svg" xmlns:xlink="http://www.w3.org/1999/xlink" x="0px" y="0px"
	 viewBox="0 0 304.1 65.1" style="enable-background:new 0 0 304.1 65.1;" xml:space="preserve">
<style type="text/css">
	.st0{fill:url(#SVGID_1_);}
	.st1{fill:#2B2B2B;}
</style>
<g>
	<linearGradient id="SVGID_1_" gradientUnits="userSpaceOnUse" x1="221.0431" y1="32.3677" x2="304.0984" y2="32.3677">
		<stop  offset="0" style="stop-color:#E1FF66"/>
		<stop  offset="1" style="stop-color:#27FF93"/>
	</linearGradient>
	<path class="st0" d="M295.8,39.2c-3.8-4.8-7.7-9.7-11.5-14.5c2.9-3.6,5.7-7.1,8.6-10.7c2.6-3.3,5.3-6.6,8-9.9l3.2-4l-5.2,0.1
		c-0.7,0-1.3,0-1.7,0c-1.4,0-2.7,0-4.1,0c-1.3,0-2.7,0-4,0c-2.3,0-4.2,0-6-0.1c-0.2,0-0.3,0-0.5,0c-3.1,0-5.3,1.2-7.1,3.7
		c-1.9,2.6-3.8,5.1-6,7.7c-0.9,1.1-1.8,2.2-2.7,3.3l-1.2,1.5l1.2,1.5c2.4,3.1,4.8,6.1,7.2,9.1l4.4,5.6c-1.7,2.1-3.5,4.3-5.3,6.5
		l-1.2,1.5l1.2,1.5c0.4,0.5,0.8,1,1.2,1.5c1.1,1.4,2.2,2.8,3.2,4.1c1,1.3,2.3,2,3.9,2l0.1,0c2.6,0,5.3,0,7.9,0l2,0l2,0
		c1.3,0,2.7,0,4,0l0.3,0l0.5,0c0.2,0,0.4,0,0.6,0l4.9-0.1l-3.1-3.9L295.8,39.2z M248.2,2.1c-1.1-1.4-2.4-2-4.1-2h0h0
		c-3.4,0-6.8,0-9.7,0l-3.2,0l-3.3,0c-0.2,0-0.4,0-0.7,0c-0.3,0-0.5,0-0.9,0l-0.1,0l-5.1,0l3.2,4c3.9,4.8,7.7,9.6,11.5,14.3
		c3.7,4.6,7.4,9.2,11.1,13.8c-7.5,9.5-15,18.9-22.6,28.5l-3.1,4h5l3.7,0l3.5,0c3.1,0,6.8,0,10.4,0l0.1,0c2.1,0,3.3-1.1,4-2l0.2-0.2
		c7.3-9.1,14.8-18.5,22.2-27.7c1-1.2,1.7-3.1,0-5.3C262.2,19.7,255,10.7,248.2,2.1z"/>
	<g>
		<path class="st1" d="M9.8,49.4c-1.8,0-3.4-0.4-4.9-1.3c-1.5-0.9-2.7-2.1-3.6-3.6C0.4,43,0,41.3,0,39.5v-4.2h9.9V39
			c0,0.1,0,0.2,0.1,0.3c0.1,0.1,0.1,0.1,0.2,0.1h28.7c0.1,0,0.2,0,0.3-0.1c0.1-0.1,0.1-0.2,0.1-0.3v-9c0-0.1,0-0.2-0.1-0.2
			c-0.1-0.1-0.2-0.1-0.3-0.1H9.8c-1.8,0-3.4-0.4-4.9-1.3c-1.5-0.9-2.7-2.1-3.6-3.6C0.4,23.3,0,21.6,0,19.8V9.9c0-1.8,0.4-3.5,1.3-5
			c0.9-1.5,2.1-2.7,3.6-3.6C6.4,0.5,8,0,9.8,0h29.7c1.8,0,3.4,0.4,4.9,1.3c1.5,0.9,2.7,2.1,3.6,3.6c0.9,1.5,1.4,3.1,1.4,5v4.2h-10
			v-3.7c0-0.1,0-0.2-0.1-0.3C39.1,10,39,10,38.9,10H10.2c-0.1,0-0.2,0-0.2,0.1c-0.1,0.1-0.1,0.2-0.1,0.3v9c0,0.1,0,0.2,0.1,0.2
			c0.1,0.1,0.1,0.1,0.2,0.1h29.3c1.8,0,3.4,0.4,4.9,1.3c1.5,0.9,2.7,2.1,3.6,3.6c0.9,1.5,1.4,3.2,1.4,4.9v9.9c0,1.8-0.5,3.5-1.4,5
			c-0.9,1.5-2.1,2.7-3.6,3.6c-1.5,0.9-3.1,1.3-4.9,1.3H9.8z"/>
		<path class="st1" d="M69.2,49.4L53.6,9.6H64l9.1,21.9l9.5-21.9h9.7l10.2,22.2L111,9.6h10.4l-14.9,39.8h-7.5L87.5,24.3L76.7,49.4
			H69.2z"/>
		<path class="st1" d="M135.1,49.4c-1.7,0-3.3-0.4-4.8-1.3c-1.5-0.9-2.7-2.1-3.5-3.5c-0.9-1.5-1.3-3.1-1.3-4.8V24.6H156v-4.8
			c0-0.1,0-0.2-0.1-0.3c-0.1-0.1-0.2-0.1-0.3-0.1h-30.2V9.6H156c1.8,0,3.4,0.4,4.9,1.3c1.5,0.9,2.6,2.1,3.5,3.5
			c0.9,1.5,1.3,3.1,1.3,4.8v30.1H135.1z M135.5,39.6H156v-6.4h-20.8v6c0,0.1,0,0.2,0.1,0.3S135.4,39.6,135.5,39.6z"/>
		<path class="st1" d="M173.1,65.1V9.6h30.6c1.8,0,3.4,0.4,4.9,1.3c1.5,0.9,2.6,2.1,3.5,3.5c0.9,1.5,1.3,3.1,1.3,4.8v20.4
			c0,1.7-0.4,3.3-1.3,4.8c-0.9,1.5-2,2.6-3.5,3.5c-1.5,0.9-3.1,1.3-4.9,1.3h-20.9v15.8H173.1z M183.2,39.6h20c0.1,0,0.2,0,0.3-0.1
			c0.1-0.1,0.1-0.2,0.1-0.3V19.8c0-0.1,0-0.2-0.1-0.3c-0.1-0.1-0.2-0.1-0.3-0.1h-20c-0.1,0-0.2,0-0.3,0.1c-0.1,0.1-0.1,0.2-0.1,0.3
			v19.5c0,0.1,0,0.2,0.1,0.3C183.1,39.6,183.2,39.6,183.2,39.6z"/>
	</g>
</g>
</svg>
