<svg width="16" height="15" viewBox="0 0 16 15" fill="none" xmlns="http://www.w3.org/2000/svg">
<path d="M8 2.0625C5.94922 2.0625 4.08984 3.15625 3.05078 4.90625C2.03906 6.68359 2.03906 8.84375 3.05078 10.5938C4.08984 12.3711 5.94922 13.4375 8 13.4375C10.0234 13.4375 11.8828 12.3711 12.9219 10.5938C13.9336 8.84375 13.9336 6.68359 12.9219 4.90625C11.8828 3.15625 10.0234 2.0625 8 2.0625ZM8 14.75C5.48438 14.75 3.1875 13.4375 1.92969 11.25C0.671875 9.08984 0.671875 6.4375 1.92969 4.25C3.1875 2.08984 5.48438 0.75 8 0.75C10.4883 0.75 12.7852 2.08984 14.043 4.25C15.3008 6.4375 15.3008 9.08984 14.043 11.25C12.7852 13.4375 10.4883 14.75 8 14.75ZM11.0898 6.46484L7.58984 9.96484C7.31641 10.2383 6.90625 10.2383 6.66016 9.96484L4.91016 8.21484C4.63672 7.96875 4.63672 7.55859 4.91016 7.3125C5.15625 7.03906 5.56641 7.03906 5.83984 7.3125L7.125 8.59766L10.1602 5.5625C10.4062 5.28906 10.8164 5.28906 11.0898 5.5625C11.3359 5.80859 11.3359 6.21875 11.0898 6.46484Z" fill="#82FB80"/>
</svg>
