<svg width="419" height="110" viewBox="0 0 419 110" fill="none" xmlns="http://www.w3.org/2000/svg">
<rect x="2.5" y="2.5" width="414" height="105" fill="#EBFDE8"/>
<rect x="2.5" y="2.5" width="414" height="105" stroke="#3D365C" stroke-width="5"/>
<g filter="url(#filter0_d_195_589)">
<mask id="path-2-outside-1_195_589" maskUnits="userSpaceOnUse" x="51" y="30" width="187" height="49" fill="black">
<rect fill="white" x="51" y="30" width="187" height="49"/>
<path d="M86.867 45.32C85.715 43.1013 84.115 41.4373 82.067 40.328C80.019 39.176 77.651 38.6 74.963 38.6C72.019 38.6 69.395 39.2613 67.091 40.584C64.787 41.9067 62.9737 43.784 61.651 46.216C60.371 48.648 59.731 51.464 59.731 54.664C59.731 57.864 60.371 60.7013 61.651 63.176C62.9737 65.608 64.787 67.4853 67.091 68.808C69.395 70.1307 72.019 70.792 74.963 70.792C78.931 70.792 82.1523 69.6827 84.627 67.464C87.1017 65.2453 88.6163 62.2373 89.171 58.44H72.467V52.616H96.979V58.312C96.5097 61.768 95.2723 64.9467 93.267 67.848C91.3043 70.7493 88.723 73.0747 85.523 74.824C82.3657 76.5307 78.8457 77.384 74.963 77.384C70.7817 77.384 66.963 76.424 63.507 74.504C60.051 72.5413 57.299 69.832 55.251 66.376C53.2457 62.92 52.243 59.016 52.243 54.664C52.243 50.312 53.2457 46.408 55.251 42.952C57.299 39.496 60.051 36.808 63.507 34.888C67.0057 32.9253 70.8243 31.944 74.963 31.944C79.699 31.944 83.9017 33.1173 87.571 35.464C91.283 37.768 93.971 41.0533 95.635 45.32H86.867ZM136.495 58.504C136.495 59.8267 136.41 61.0213 136.239 62.088H109.295C109.508 64.904 110.554 67.1653 112.431 68.872C114.308 70.5787 116.612 71.432 119.343 71.432C123.268 71.432 126.042 69.7893 127.663 66.504H135.535C134.468 69.7467 132.527 72.4133 129.711 74.504C126.938 76.552 123.482 77.576 119.343 77.576C115.972 77.576 112.943 76.8293 110.255 75.336C107.61 73.8 105.519 71.6667 103.983 68.936C102.49 66.1627 101.743 62.9627 101.743 59.336C101.743 55.7093 102.468 52.5307 103.919 49.8C105.412 47.0267 107.482 44.8933 110.127 43.4C112.815 41.9067 115.887 41.16 119.343 41.16C122.671 41.16 125.636 41.8853 128.239 43.336C130.842 44.7867 132.868 46.8347 134.319 49.48C135.77 52.0827 136.495 55.0907 136.495 58.504ZM128.879 56.2C128.836 53.512 127.876 51.3573 125.999 49.736C124.122 48.1147 121.796 47.304 119.023 47.304C116.506 47.304 114.351 48.1147 112.559 49.736C110.767 51.3147 109.7 53.4693 109.359 56.2H128.879ZM186.363 41.16C189.136 41.16 191.611 41.736 193.787 42.888C196.006 44.04 197.734 45.7467 198.971 48.008C200.251 50.2693 200.891 53 200.891 56.2V77H193.659V57.288C193.659 54.1307 192.87 51.72 191.291 50.056C189.712 48.3493 187.558 47.496 184.827 47.496C182.096 47.496 179.92 48.3493 178.299 50.056C176.72 51.72 175.931 54.1307 175.931 57.288V77H168.699V57.288C168.699 54.1307 167.91 51.72 166.331 50.056C164.752 48.3493 162.598 47.496 159.867 47.496C157.136 47.496 154.96 48.3493 153.339 50.056C151.76 51.72 150.971 54.1307 150.971 57.288V77H143.675V41.736H150.971V45.768C152.166 44.3173 153.68 43.1867 155.515 42.376C157.35 41.5653 159.312 41.16 161.403 41.16C164.219 41.16 166.736 41.7573 168.955 42.952C171.174 44.1467 172.88 45.8747 174.075 48.136C175.142 46.0027 176.806 44.3173 179.067 43.08C181.328 41.8 183.76 41.16 186.363 41.16ZM222.975 77.576C220.202 77.576 217.706 77.0853 215.487 76.104C213.311 75.08 211.583 73.7147 210.303 72.008C209.023 70.2587 208.34 68.3173 208.255 66.184H215.807C215.935 67.6773 216.639 68.936 217.919 69.96C219.242 70.9413 220.884 71.432 222.847 71.432C224.895 71.432 226.474 71.048 227.583 70.28C228.735 69.4693 229.311 68.4453 229.311 67.208C229.311 65.8853 228.671 64.904 227.391 64.264C226.154 63.624 224.17 62.92 221.439 62.152C218.794 61.4267 216.639 60.7227 214.975 60.04C213.311 59.3573 211.86 58.312 210.623 56.904C209.428 55.496 208.831 53.64 208.831 51.336C208.831 49.4587 209.386 47.752 210.495 46.216C211.604 44.6373 213.183 43.4 215.231 42.504C217.322 41.608 219.711 41.16 222.399 41.16C226.41 41.16 229.631 42.184 232.063 44.232C234.538 46.2373 235.86 48.9893 236.031 52.488H228.735C228.607 50.9093 227.967 49.6507 226.815 48.712C225.663 47.7733 224.106 47.304 222.143 47.304C220.223 47.304 218.751 47.6667 217.727 48.392C216.703 49.1173 216.191 50.0773 216.191 51.272C216.191 52.2107 216.532 53 217.215 53.64C217.898 54.28 218.73 54.792 219.711 55.176C220.692 55.5173 222.143 55.9653 224.063 56.52C226.623 57.2027 228.714 57.9067 230.335 58.632C231.999 59.3147 233.428 60.3387 234.623 61.704C235.818 63.0693 236.436 64.8827 236.479 67.144C236.479 69.1493 235.924 70.9413 234.815 72.52C233.706 74.0987 232.127 75.336 230.079 76.232C228.074 77.128 225.706 77.576 222.975 77.576Z"/>
</mask>
<path d="M86.867 45.32C85.715 43.1013 84.115 41.4373 82.067 40.328C80.019 39.176 77.651 38.6 74.963 38.6C72.019 38.6 69.395 39.2613 67.091 40.584C64.787 41.9067 62.9737 43.784 61.651 46.216C60.371 48.648 59.731 51.464 59.731 54.664C59.731 57.864 60.371 60.7013 61.651 63.176C62.9737 65.608 64.787 67.4853 67.091 68.808C69.395 70.1307 72.019 70.792 74.963 70.792C78.931 70.792 82.1523 69.6827 84.627 67.464C87.1017 65.2453 88.6163 62.2373 89.171 58.44H72.467V52.616H96.979V58.312C96.5097 61.768 95.2723 64.9467 93.267 67.848C91.3043 70.7493 88.723 73.0747 85.523 74.824C82.3657 76.5307 78.8457 77.384 74.963 77.384C70.7817 77.384 66.963 76.424 63.507 74.504C60.051 72.5413 57.299 69.832 55.251 66.376C53.2457 62.92 52.243 59.016 52.243 54.664C52.243 50.312 53.2457 46.408 55.251 42.952C57.299 39.496 60.051 36.808 63.507 34.888C67.0057 32.9253 70.8243 31.944 74.963 31.944C79.699 31.944 83.9017 33.1173 87.571 35.464C91.283 37.768 93.971 41.0533 95.635 45.32H86.867ZM136.495 58.504C136.495 59.8267 136.41 61.0213 136.239 62.088H109.295C109.508 64.904 110.554 67.1653 112.431 68.872C114.308 70.5787 116.612 71.432 119.343 71.432C123.268 71.432 126.042 69.7893 127.663 66.504H135.535C134.468 69.7467 132.527 72.4133 129.711 74.504C126.938 76.552 123.482 77.576 119.343 77.576C115.972 77.576 112.943 76.8293 110.255 75.336C107.61 73.8 105.519 71.6667 103.983 68.936C102.49 66.1627 101.743 62.9627 101.743 59.336C101.743 55.7093 102.468 52.5307 103.919 49.8C105.412 47.0267 107.482 44.8933 110.127 43.4C112.815 41.9067 115.887 41.16 119.343 41.16C122.671 41.16 125.636 41.8853 128.239 43.336C130.842 44.7867 132.868 46.8347 134.319 49.48C135.77 52.0827 136.495 55.0907 136.495 58.504ZM128.879 56.2C128.836 53.512 127.876 51.3573 125.999 49.736C124.122 48.1147 121.796 47.304 119.023 47.304C116.506 47.304 114.351 48.1147 112.559 49.736C110.767 51.3147 109.7 53.4693 109.359 56.2H128.879ZM186.363 41.16C189.136 41.16 191.611 41.736 193.787 42.888C196.006 44.04 197.734 45.7467 198.971 48.008C200.251 50.2693 200.891 53 200.891 56.2V77H193.659V57.288C193.659 54.1307 192.87 51.72 191.291 50.056C189.712 48.3493 187.558 47.496 184.827 47.496C182.096 47.496 179.92 48.3493 178.299 50.056C176.72 51.72 175.931 54.1307 175.931 57.288V77H168.699V57.288C168.699 54.1307 167.91 51.72 166.331 50.056C164.752 48.3493 162.598 47.496 159.867 47.496C157.136 47.496 154.96 48.3493 153.339 50.056C151.76 51.72 150.971 54.1307 150.971 57.288V77H143.675V41.736H150.971V45.768C152.166 44.3173 153.68 43.1867 155.515 42.376C157.35 41.5653 159.312 41.16 161.403 41.16C164.219 41.16 166.736 41.7573 168.955 42.952C171.174 44.1467 172.88 45.8747 174.075 48.136C175.142 46.0027 176.806 44.3173 179.067 43.08C181.328 41.8 183.76 41.16 186.363 41.16ZM222.975 77.576C220.202 77.576 217.706 77.0853 215.487 76.104C213.311 75.08 211.583 73.7147 210.303 72.008C209.023 70.2587 208.34 68.3173 208.255 66.184H215.807C215.935 67.6773 216.639 68.936 217.919 69.96C219.242 70.9413 220.884 71.432 222.847 71.432C224.895 71.432 226.474 71.048 227.583 70.28C228.735 69.4693 229.311 68.4453 229.311 67.208C229.311 65.8853 228.671 64.904 227.391 64.264C226.154 63.624 224.17 62.92 221.439 62.152C218.794 61.4267 216.639 60.7227 214.975 60.04C213.311 59.3573 211.86 58.312 210.623 56.904C209.428 55.496 208.831 53.64 208.831 51.336C208.831 49.4587 209.386 47.752 210.495 46.216C211.604 44.6373 213.183 43.4 215.231 42.504C217.322 41.608 219.711 41.16 222.399 41.16C226.41 41.16 229.631 42.184 232.063 44.232C234.538 46.2373 235.86 48.9893 236.031 52.488H228.735C228.607 50.9093 227.967 49.6507 226.815 48.712C225.663 47.7733 224.106 47.304 222.143 47.304C220.223 47.304 218.751 47.6667 217.727 48.392C216.703 49.1173 216.191 50.0773 216.191 51.272C216.191 52.2107 216.532 53 217.215 53.64C217.898 54.28 218.73 54.792 219.711 55.176C220.692 55.5173 222.143 55.9653 224.063 56.52C226.623 57.2027 228.714 57.9067 230.335 58.632C231.999 59.3147 233.428 60.3387 234.623 61.704C235.818 63.0693 236.436 64.8827 236.479 67.144C236.479 69.1493 235.924 70.9413 234.815 72.52C233.706 74.0987 232.127 75.336 230.079 76.232C228.074 77.128 225.706 77.576 222.975 77.576Z" fill="#3D365C"/>
<path d="M86.867 45.32L85.9795 45.7808L86.2595 46.32H86.867V45.32ZM82.067 40.328L81.5767 41.1996L81.5837 41.2035L81.5907 41.2073L82.067 40.328ZM67.091 40.584L67.5889 41.4513L67.5889 41.4513L67.091 40.584ZM61.651 46.216L60.7724 45.7382L60.7661 45.7503L61.651 46.216ZM61.651 63.176L60.7628 63.6354L60.7676 63.6446L60.7725 63.6538L61.651 63.176ZM67.091 68.808L67.5889 67.9407L67.5889 67.9407L67.091 68.808ZM84.627 67.464L85.2945 68.2086L85.2945 68.2086L84.627 67.464ZM89.171 58.44L90.1605 58.5845L90.3277 57.44H89.171V58.44ZM72.467 58.44H71.467V59.44H72.467V58.44ZM72.467 52.616V51.616H71.467V52.616H72.467ZM96.979 52.616H97.979V51.616H96.979V52.616ZM96.979 58.312L97.9699 58.4466L97.979 58.3796V58.312H96.979ZM93.267 67.848L92.4443 67.2794L92.4387 67.2877L93.267 67.848ZM85.523 74.824L85.9985 75.7037L86.0027 75.7014L85.523 74.824ZM63.507 74.504L63.0132 75.3736L63.0214 75.3782L63.507 74.504ZM55.251 66.376L54.386 66.8779L54.3907 66.8858L55.251 66.376ZM55.251 42.952L54.3907 42.4422L54.3861 42.4501L55.251 42.952ZM63.507 34.888L63.9926 35.7622L63.9963 35.7601L63.507 34.888ZM87.571 35.464L87.0322 36.3065L87.0436 36.3136L87.571 35.464ZM95.635 45.32V46.32H97.0984L96.5667 44.9567L95.635 45.32ZM87.7545 44.8592C86.5174 42.4767 84.7802 40.6604 82.5433 39.4487L81.5907 41.2073C83.4498 42.2143 84.9126 43.7259 85.9795 45.7808L87.7545 44.8592ZM82.5573 39.4564C80.3392 38.2087 77.7977 37.6 74.963 37.6V39.6C77.5043 39.6 79.6988 40.1433 81.5767 41.1996L82.5573 39.4564ZM74.963 37.6C71.8637 37.6 69.0646 38.2979 66.5931 39.7167L67.5889 41.4513C69.7254 40.2247 72.1743 39.6 74.963 39.6V37.6ZM66.5931 39.7167C64.1217 41.1355 62.1797 43.1509 60.7725 45.7382L62.5295 46.6938C63.7677 44.4171 65.4523 42.6778 67.5889 41.4513L66.5931 39.7167ZM60.7661 45.7503C59.399 48.3478 58.731 51.3285 58.731 54.664H60.731C60.731 51.5995 61.343 48.9482 62.5359 46.6817L60.7661 45.7503ZM58.731 54.664C58.731 58 59.3991 60.999 60.7628 63.6354L62.5392 62.7166C61.3429 60.4037 60.731 57.728 60.731 54.664H58.731ZM60.7725 63.6538C62.1797 66.2411 64.1217 68.2565 66.5931 69.6753L67.5889 67.9407C65.4523 66.7142 63.7677 64.9749 62.5295 62.6982L60.7725 63.6538ZM66.5931 69.6753C69.0646 71.0941 71.8637 71.792 74.963 71.792V69.792C72.1743 69.792 69.7254 69.1673 67.5889 67.9407L66.5931 69.6753ZM74.963 71.792C79.127 71.792 82.6021 70.6225 85.2945 68.2086L83.9595 66.7194C81.7026 68.7428 78.735 69.792 74.963 69.792V71.792ZM85.2945 68.2086C87.9699 65.81 89.5775 62.5756 90.1605 58.5845L88.1815 58.2955C87.6551 61.899 86.2335 64.6807 83.9595 66.7194L85.2945 68.2086ZM89.171 57.44H72.467V59.44H89.171V57.44ZM73.467 58.44V52.616H71.467V58.44H73.467ZM72.467 53.616H96.979V51.616H72.467V53.616ZM95.979 52.616V58.312H97.979V52.616H95.979ZM95.9881 58.1774C95.5402 61.4757 94.3613 64.506 92.4444 67.2794L94.0896 68.4166C96.1834 65.3873 97.4792 62.0603 97.9699 58.4466L95.9881 58.1774ZM92.4387 67.2877C90.569 70.0515 88.1095 72.2704 85.0433 73.9466L86.0027 75.7014C89.3365 73.8789 92.0396 71.4471 94.0953 68.4083L92.4387 67.2877ZM85.0475 73.9443C82.048 75.5656 78.6936 76.384 74.963 76.384V78.384C78.9978 78.384 82.6833 77.4957 85.9985 75.7037L85.0475 73.9443ZM74.963 76.384C70.9415 76.384 67.2915 75.4625 63.9926 73.6298L63.0214 75.3782C66.6345 77.3855 70.6219 78.384 74.963 78.384V76.384ZM64.0008 73.6344C60.6979 71.7587 58.0715 69.1741 56.1113 65.8662L54.3907 66.8858C56.5265 70.4899 59.4041 73.324 63.0132 75.3736L64.0008 73.6344ZM56.1159 65.8741C54.2069 62.584 53.243 58.8559 53.243 54.664H51.243C51.243 59.1761 52.2845 63.256 54.3861 66.8779L56.1159 65.8741ZM53.243 54.664C53.243 50.4721 54.2069 46.744 56.1159 43.4539L54.3861 42.4501C52.2845 46.072 51.243 50.1519 51.243 54.664H53.243ZM56.1113 43.4618C58.0704 40.1557 60.6942 37.5946 63.9926 35.7622L63.0214 34.0138C59.4078 36.0214 56.5276 38.8363 54.3907 42.4422L56.1113 43.4618ZM63.9963 35.7601C67.3406 33.884 70.99 32.944 74.963 32.944V30.944C70.6586 30.944 66.6707 31.9666 63.0177 34.0159L63.9963 35.7601ZM74.963 32.944C79.5254 32.944 83.5378 34.0716 87.0322 36.3064L88.1098 34.6215C84.2656 32.163 79.8726 30.944 74.963 30.944V32.944ZM87.0436 36.3136C90.5626 38.4978 93.1139 41.6078 94.7033 45.6833L96.5667 44.9567C94.8281 40.4988 92.0035 37.0382 88.0984 34.6144L87.0436 36.3136ZM95.635 44.32H86.867V46.32H95.635V44.32ZM136.239 62.088V63.088H137.092L137.226 62.246L136.239 62.088ZM109.295 62.088V61.088H108.216L108.298 62.1635L109.295 62.088ZM112.431 68.872L111.758 69.6119L111.758 69.6119L112.431 68.872ZM127.663 66.504V65.504H127.041L126.766 66.0615L127.663 66.504ZM135.535 66.504L136.485 66.8165L136.917 65.504H135.535V66.504ZM129.711 74.504L130.305 75.3084L130.307 75.3069L129.711 74.504ZM110.255 75.336L109.753 76.2008L109.761 76.2056L109.769 76.2102L110.255 75.336ZM103.983 68.936L103.103 69.4101L103.107 69.4182L103.111 69.4263L103.983 68.936ZM103.919 49.8L103.039 49.3259L103.036 49.3308L103.919 49.8ZM110.127 43.4L109.641 42.5258L109.635 42.5292L110.127 43.4ZM128.239 43.336L128.726 42.4625L128.726 42.4625L128.239 43.336ZM134.319 49.48L133.442 49.9608L133.446 49.9669L134.319 49.48ZM128.879 56.2V57.2H129.895L129.879 56.1841L128.879 56.2ZM125.999 49.736L126.653 48.9792L126.653 48.9792L125.999 49.736ZM112.559 49.736L113.22 50.4864L113.23 50.4775L112.559 49.736ZM109.359 56.2L108.367 56.076L108.226 57.2H109.359V56.2ZM135.495 58.504C135.495 59.785 135.412 60.9256 135.252 61.93L137.226 62.246C137.407 61.117 137.495 59.8683 137.495 58.504H135.495ZM136.239 61.088H109.295V63.088H136.239V61.088ZM108.298 62.1635C108.528 65.203 109.67 67.7134 111.758 69.6119L113.104 68.1321C111.437 66.6173 110.489 64.6049 110.292 62.0125L108.298 62.1635ZM111.758 69.6119C113.834 71.4993 116.384 72.432 119.343 72.432V70.432C116.84 70.432 114.782 69.658 113.104 68.1321L111.758 69.6119ZM119.343 72.432C121.446 72.432 123.305 71.9911 124.877 71.0604C126.452 70.1272 127.675 68.7386 128.56 66.9465L126.766 66.0615C126.029 67.5547 125.055 68.6301 123.857 69.3396C122.655 70.0515 121.165 70.432 119.343 70.432V72.432ZM127.663 67.504H135.535V65.504H127.663V67.504ZM134.585 66.1915C133.585 69.2324 131.77 71.7299 129.115 73.7011L130.307 75.3069C133.284 73.0968 135.352 70.2609 136.485 66.8165L134.585 66.1915ZM129.117 73.6996C126.548 75.5967 123.312 76.576 119.343 76.576V78.576C123.652 78.576 127.327 77.5073 130.305 75.3084L129.117 73.6996ZM119.343 76.576C116.126 76.576 113.266 75.8649 110.741 74.4618L109.769 76.2102C112.62 77.7938 115.819 78.576 119.343 78.576V76.576ZM110.757 74.4712C108.27 73.0271 106.305 71.0248 104.855 68.4457L103.111 69.4263C104.733 72.3086 106.949 74.5729 109.753 76.2008L110.757 74.4712ZM104.863 68.4619C103.46 65.855 102.743 62.8224 102.743 59.336H100.743C100.743 63.1029 101.52 66.4703 103.103 69.4101L104.863 68.4619ZM102.743 59.336C102.743 55.8446 103.44 52.8323 104.802 50.2692L103.036 49.3308C101.496 52.2291 100.743 55.5741 100.743 59.336H102.743ZM104.799 50.2741C106.207 47.6606 108.144 45.6678 110.619 44.2708L109.635 42.5292C106.819 44.1189 104.618 46.3927 103.039 49.3259L104.799 50.2741ZM110.613 44.2742C113.134 42.8732 116.036 42.16 119.343 42.16V40.16C115.738 40.16 112.496 40.9402 109.641 42.5258L110.613 44.2742ZM119.343 42.16C122.521 42.16 125.315 42.8511 127.752 44.2095L128.726 42.4625C125.958 40.9195 122.821 40.16 119.343 40.16V42.16ZM127.752 44.2095C130.188 45.5673 132.081 47.4783 133.442 49.9608L135.196 48.9992C133.656 46.1911 131.495 44.006 128.726 42.4625L127.752 44.2095ZM133.446 49.9669C134.802 52.4002 135.495 55.236 135.495 58.504H137.495C137.495 54.9454 136.738 51.7652 135.192 48.9931L133.446 49.9669ZM129.879 56.1841C129.832 53.2379 128.765 50.8037 126.653 48.9792L125.345 50.4928C126.987 51.911 127.841 53.7861 127.879 56.2159L129.879 56.1841ZM126.653 48.9792C124.572 47.1822 122.006 46.304 119.023 46.304V48.304C121.587 48.304 123.671 49.0471 125.345 50.4928L126.653 48.9792ZM119.023 46.304C116.269 46.304 113.872 47.1993 111.888 48.9945L113.23 50.4775C114.83 49.03 116.742 48.304 119.023 48.304V46.304ZM111.898 48.9856C109.895 50.75 108.733 53.1423 108.367 56.076L110.351 56.324C110.667 53.7963 111.639 51.8793 113.22 50.4864L111.898 48.9856ZM109.359 57.2H128.879V55.2H109.359V57.2ZM193.787 42.888L193.319 43.7718L193.326 43.7755L193.787 42.888ZM198.971 48.008L198.094 48.488L198.097 48.4943L198.101 48.5006L198.971 48.008ZM200.891 77V78H201.891V77H200.891ZM193.659 77H192.659V78H193.659V77ZM191.291 50.056L190.557 50.7351L190.566 50.7443L191.291 50.056ZM178.299 50.056L177.574 49.3672L177.574 49.3677L178.299 50.056ZM175.931 77V78H176.931V77H175.931ZM168.699 77H167.699V78H168.699V77ZM166.331 50.056L165.597 50.7351L165.606 50.7443L166.331 50.056ZM153.339 50.056L152.614 49.3672L152.614 49.3677L153.339 50.056ZM150.971 77V78H151.971V77H150.971ZM143.675 77H142.675V78H143.675V77ZM143.675 41.736V40.736H142.675V41.736H143.675ZM150.971 41.736H151.971V40.736H150.971V41.736ZM150.971 45.768H149.971V48.5553L151.743 46.4037L150.971 45.768ZM155.515 42.376L155.919 43.2907L155.919 43.2907L155.515 42.376ZM168.955 42.952L169.429 42.0715L169.429 42.0715L168.955 42.952ZM174.075 48.136L173.191 48.6031L174.099 50.3231L174.969 48.5832L174.075 48.136ZM179.067 43.08L179.547 43.9573L179.553 43.9538L179.56 43.9503L179.067 43.08ZM186.363 42.16C188.994 42.16 191.305 42.7053 193.319 43.7718L194.255 42.0042C191.917 40.7667 189.279 40.16 186.363 40.16V42.16ZM193.326 43.7755C195.363 44.833 196.949 46.3951 198.094 48.488L199.848 47.528C198.519 45.0982 196.648 43.247 194.248 42.0005L193.326 43.7755ZM198.101 48.5006C199.278 50.5806 199.891 53.133 199.891 56.2H201.891C201.891 52.867 201.224 49.9581 199.841 47.5154L198.101 48.5006ZM199.891 56.2V77H201.891V56.2H199.891ZM200.891 76H193.659V78H200.891V76ZM194.659 77V57.288H192.659V77H194.659ZM194.659 57.288C194.659 53.9723 193.829 51.278 192.016 49.3677L190.566 50.7443C191.911 52.162 192.659 54.2891 192.659 57.288H194.659ZM192.025 49.377C190.224 47.4297 187.783 46.496 184.827 46.496V48.496C187.332 48.496 189.201 49.269 190.557 50.735L192.025 49.377ZM184.827 46.496C181.87 46.496 179.415 47.4297 177.574 49.3672L179.024 50.7447C180.426 49.269 182.323 48.496 184.827 48.496V46.496ZM177.574 49.3677C175.761 51.278 174.931 53.9723 174.931 57.288H176.931C176.931 54.2891 177.679 52.162 179.024 50.7443L177.574 49.3677ZM174.931 57.288V77H176.931V57.288H174.931ZM175.931 76H168.699V78H175.931V76ZM169.699 77V57.288H167.699V77H169.699ZM169.699 57.288C169.699 53.9723 168.869 51.278 167.056 49.3677L165.606 50.7443C166.951 52.162 167.699 54.2891 167.699 57.288H169.699ZM167.065 49.377C165.264 47.4297 162.823 46.496 159.867 46.496V48.496C162.372 48.496 164.241 49.269 165.597 50.735L167.065 49.377ZM159.867 46.496C156.91 46.496 154.455 47.4297 152.614 49.3672L154.064 50.7447C155.466 49.269 157.363 48.496 159.867 48.496V46.496ZM152.614 49.3677C150.801 51.278 149.971 53.9723 149.971 57.288H151.971C151.971 54.2891 152.719 52.162 154.064 50.7443L152.614 49.3677ZM149.971 57.288V77H151.971V57.288H149.971ZM150.971 76H143.675V78H150.971V76ZM144.675 77V41.736H142.675V77H144.675ZM143.675 42.736H150.971V40.736H143.675V42.736ZM149.971 41.736V45.768H151.971V41.736H149.971ZM151.743 46.4037C152.832 45.0815 154.217 44.0427 155.919 43.2907L155.111 41.4613C153.143 42.3307 151.5 43.5532 150.199 45.1323L151.743 46.4037ZM155.919 43.2907C157.621 42.5387 159.446 42.16 161.403 42.16V40.16C159.179 40.16 157.078 40.592 155.111 41.4613L155.919 43.2907ZM161.403 42.16C164.073 42.16 166.424 42.7251 168.481 43.8325L169.429 42.0715C167.048 40.7895 164.365 40.16 161.403 40.16V42.16ZM168.481 43.8325C170.522 44.9316 172.087 46.5144 173.191 48.6031L174.959 47.6689C173.673 45.2349 171.825 43.3617 169.429 42.0715L168.481 43.8325ZM174.969 48.5832C175.938 46.647 177.449 45.1051 179.547 43.9573L178.587 42.2027C176.162 43.5296 174.346 45.3584 173.181 47.6888L174.969 48.5832ZM179.56 43.9503C181.67 42.7554 183.933 42.16 186.363 42.16V40.16C183.588 40.16 180.986 40.8446 178.574 42.2097L179.56 43.9503ZM215.487 76.104L215.061 77.0088L215.072 77.0138L215.082 77.0185L215.487 76.104ZM210.303 72.008L209.496 72.5986L209.503 72.608L210.303 72.008ZM208.255 66.184V65.184H207.214L207.256 66.224L208.255 66.184ZM215.807 66.184L216.803 66.0986L216.725 65.184H215.807V66.184ZM217.919 69.96L217.294 70.7409L217.309 70.7522L217.323 70.7631L217.919 69.96ZM227.583 70.28L228.152 71.1022L228.158 71.0978L227.583 70.28ZM227.391 64.264L226.932 65.1523L226.944 65.1584L227.391 64.264ZM221.439 62.152L221.71 61.1893L221.703 61.1876L221.439 62.152ZM214.975 60.04L214.595 60.9652L214.595 60.9652L214.975 60.04ZM210.623 56.904L209.86 57.551L209.866 57.5576L209.872 57.5641L210.623 56.904ZM210.495 46.216L211.306 46.8015L211.313 46.7909L210.495 46.216ZM215.231 42.504L214.837 41.5848L214.83 41.5878L215.231 42.504ZM232.063 44.232L231.419 44.9969L231.426 45.003L231.433 45.0089L232.063 44.232ZM236.031 52.488V53.488H237.081L237.03 52.4393L236.031 52.488ZM228.735 52.488L227.738 52.5688L227.813 53.488H228.735V52.488ZM226.815 48.712L227.447 47.9368L227.447 47.9368L226.815 48.712ZM217.727 48.392L217.149 47.576L217.149 47.576L217.727 48.392ZM217.215 53.64L216.531 54.3695L216.531 54.3695L217.215 53.64ZM219.711 55.176L219.347 56.1072L219.364 56.1142L219.382 56.1205L219.711 55.176ZM224.063 56.52L223.785 57.4807L223.795 57.4836L223.805 57.4862L224.063 56.52ZM230.335 58.632L229.927 59.5448L229.941 59.5512L229.955 59.5572L230.335 58.632ZM234.623 61.704L233.87 62.3625L233.87 62.3625L234.623 61.704ZM236.479 67.144H237.479V67.1346L237.479 67.1251L236.479 67.144ZM234.815 72.52L233.997 71.9451L233.997 71.9451L234.815 72.52ZM230.079 76.232L229.678 75.3158L229.671 75.319L230.079 76.232ZM222.975 76.576C220.321 76.576 217.966 76.1069 215.892 75.1895L215.082 77.0185C217.446 78.0637 220.082 78.576 222.975 78.576V76.576ZM215.913 75.1992C213.865 74.2357 212.273 72.9682 211.103 71.408L209.503 72.608C210.893 74.4612 212.757 75.9243 215.061 77.0088L215.913 75.1992ZM211.11 71.4175C209.945 69.8259 209.331 68.0756 209.254 66.144L207.256 66.224C207.349 68.559 208.101 70.6914 209.496 72.5985L211.11 71.4175ZM208.255 67.184H215.807V65.184H208.255V67.184ZM214.811 66.2694C214.964 68.0628 215.823 69.5635 217.294 70.7409L218.544 69.1791C217.455 68.3085 216.906 67.2919 216.803 66.0986L214.811 66.2694ZM217.323 70.7631C218.849 71.8954 220.712 72.432 222.847 72.432V70.432C221.057 70.432 219.634 69.9873 218.515 69.1569L217.323 70.7631ZM222.847 72.432C225 72.432 226.81 72.0317 228.152 71.1022L227.014 69.4578C226.138 70.0643 224.79 70.432 222.847 70.432V72.432ZM228.158 71.0978C229.534 70.1298 230.311 68.8196 230.311 67.208H228.311C228.311 68.0711 227.936 68.8088 227.008 69.4622L228.158 71.0978ZM230.311 67.208C230.311 66.3785 230.108 65.6072 229.669 64.9337C229.232 64.2647 228.602 63.7514 227.838 63.3696L226.944 65.1584C227.46 65.4166 227.79 65.7139 227.993 66.0263C228.194 66.3341 228.311 66.7149 228.311 67.208H230.311ZM227.85 63.3758C226.519 62.6869 224.453 61.9609 221.71 61.1893L221.168 63.1147C223.886 63.8791 225.789 64.5611 226.932 65.1522L227.85 63.3758ZM221.703 61.1876C219.079 60.4681 216.967 59.7763 215.355 59.1148L214.595 60.9652C216.311 61.669 218.508 62.3853 221.175 63.1164L221.703 61.1876ZM215.355 59.1148C213.839 58.4932 212.514 57.5411 211.374 56.2439L209.872 57.5641C211.207 59.0829 212.783 60.2215 214.595 60.9652L215.355 59.1148ZM211.386 56.257C210.379 55.0711 209.831 53.4636 209.831 51.336H207.831C207.831 53.8164 208.477 55.9209 209.86 57.551L211.386 56.257ZM209.831 51.336C209.831 49.671 210.318 48.1688 211.306 46.8015L209.684 45.6305C208.453 47.3352 207.831 49.2464 207.831 51.336H209.831ZM211.313 46.7909C212.301 45.3845 213.725 44.2546 215.632 43.4202L214.83 41.5878C212.641 42.5454 210.907 43.8902 209.677 45.6411L211.313 46.7909ZM215.625 43.4231C217.571 42.5893 219.822 42.16 222.399 42.16V40.16C219.6 40.16 217.073 40.6267 214.837 41.5849L215.625 43.4231ZM222.399 42.16C226.237 42.16 229.21 43.1371 231.419 44.9969L232.707 43.4671C230.052 41.2309 226.582 40.16 222.399 40.16V42.16ZM231.433 45.0089C233.663 46.8161 234.874 49.2906 235.032 52.5367L237.03 52.4393C236.847 48.6881 235.412 45.6586 232.693 43.4551L231.433 45.0089ZM236.031 51.488H228.735V53.488H236.031V51.488ZM229.732 52.4072C229.583 50.5769 228.825 49.0598 227.447 47.9368L226.183 49.4872C227.109 50.2416 227.631 51.2417 227.738 52.5688L229.732 52.4072ZM227.447 47.9368C226.066 46.8118 224.261 46.304 222.143 46.304V48.304C223.95 48.304 225.26 48.7348 226.183 49.4872L227.447 47.9368ZM222.143 46.304C220.119 46.304 218.41 46.6828 217.149 47.576L218.305 49.208C219.092 48.6506 220.327 48.304 222.143 48.304V46.304ZM217.149 47.576C215.876 48.4776 215.191 49.7341 215.191 51.272H217.191C217.191 50.4205 217.53 49.757 218.305 49.208L217.149 47.576ZM215.191 51.272C215.191 52.4861 215.646 53.5398 216.531 54.3695L217.899 52.9105C217.419 52.4602 217.191 51.9352 217.191 51.272H215.191ZM216.531 54.3695C217.317 55.1068 218.262 55.6827 219.347 56.1072L220.075 54.2448C219.198 53.9013 218.478 53.4532 217.899 52.9105L216.531 54.3695ZM219.382 56.1205C220.39 56.4708 221.861 56.9247 223.785 57.4807L224.341 55.5593C222.425 55.0059 220.995 54.5639 220.04 54.2315L219.382 56.1205ZM223.805 57.4862C226.336 58.1611 228.371 58.8491 229.927 59.5448L230.743 57.7192C229.056 56.9643 226.91 56.2442 224.321 55.5538L223.805 57.4862ZM229.955 59.5572C231.475 60.1805 232.777 61.1127 233.87 62.3625L235.376 61.0455C234.08 59.5646 232.523 58.4488 230.715 57.7068L229.955 59.5572ZM233.87 62.3625C234.874 63.51 235.44 65.0773 235.479 67.1629L237.479 67.1251C237.433 64.6881 236.761 62.6287 235.376 61.0455L233.87 62.3625ZM235.479 67.144C235.479 68.9522 234.983 70.5417 233.997 71.9451L235.633 73.0949C236.866 71.341 237.479 69.3465 237.479 67.144H235.479ZM233.997 71.9451C233.009 73.3515 231.585 74.4814 229.678 75.3158L230.48 77.1482C232.669 76.1906 234.403 74.8458 235.633 73.0949L233.997 71.9451ZM229.671 75.319C227.821 76.1455 225.598 76.576 222.975 76.576V78.576C225.813 78.576 228.326 78.1105 230.487 77.145L229.671 75.319Z" fill="black" mask="url(#path-2-outside-1_195_589)"/>
</g>
<path d="M290 35.1484C290 35.1875 290 35.207 290 35.2461C290 35.2656 290 35.2852 290 35.3047C290 35.3437 290 35.3633 290.02 35.4023C290.02 35.4219 290.02 35.4414 290.039 35.4609C290.039 35.5 290.059 35.5195 290.059 35.5586C290.059 35.5781 290.078 35.5977 290.078 35.6172C290.078 35.6367 290.098 35.6758 290.098 35.6953C290.098 35.7148 290.117 35.7344 290.117 35.7539C290.137 35.7734 290.137 35.8125 290.156 35.832C290.176 35.8516 290.176 35.8711 290.195 35.8906C290.215 35.9102 290.215 35.9297 290.234 35.9688C290.254 35.9883 290.254 36.0078 290.273 36.0273C290.293 36.0469 290.313 36.0664 290.332 36.1055C290.332 36.125 290.352 36.125 290.352 36.1445L335.664 92.3945C335.684 92.4141 335.703 92.4336 335.723 92.4727C335.742 92.4922 335.742 92.5117 335.762 92.5117C335.801 92.5508 335.859 92.6094 335.898 92.6484C335.957 92.6875 335.996 92.7266 336.055 92.7656C336.074 92.7852 336.094 92.7852 336.113 92.8047C336.152 92.8242 336.191 92.8437 336.23 92.8633C336.25 92.8828 336.27 92.8828 336.289 92.8828C336.328 92.9023 336.367 92.9023 336.406 92.9219C336.426 92.9219 336.445 92.9414 336.484 92.9414C336.523 92.9609 336.562 92.9609 336.621 92.9609C336.641 92.9609 336.66 92.9609 336.68 92.9805C336.738 92.9805 336.816 93 336.875 93C336.934 93 337.012 93 337.07 92.9805C337.09 92.9805 337.109 92.9805 337.129 92.9609C337.168 92.9609 337.207 92.9414 337.266 92.9414C337.285 92.9414 337.305 92.9219 337.344 92.9219C337.383 92.9023 337.422 92.9023 337.461 92.8828C337.48 92.8828 337.5 92.8633 337.52 92.8633C337.559 92.8437 337.598 92.8242 337.637 92.8047C337.656 92.7852 337.676 92.7852 337.695 92.7656C337.754 92.7266 337.812 92.6875 337.852 92.6484C337.91 92.6094 337.949 92.5703 337.988 92.5117C338.008 92.4922 338.008 92.4727 338.027 92.4727C338.047 92.4531 338.066 92.4336 338.086 92.3945L383.398 36.1445C383.398 36.125 383.418 36.125 383.418 36.1055C383.437 36.0859 383.457 36.0664 383.477 36.0273C383.496 36.0078 383.496 35.9883 383.516 35.9688C383.535 35.9492 383.535 35.9297 383.555 35.8906C383.574 35.8711 383.574 35.8516 383.594 35.832C383.613 35.8125 383.613 35.7734 383.633 35.7539C383.633 35.7344 383.652 35.7148 383.652 35.6953C383.672 35.6758 383.672 35.6367 383.672 35.6172C383.672 35.5977 383.691 35.5781 383.691 35.5586C383.691 35.5195 383.711 35.5 383.711 35.4609C383.711 35.4414 383.711 35.4219 383.73 35.4023C383.73 35.3633 383.73 35.3437 383.75 35.3047C383.75 35.2852 383.75 35.2656 383.75 35.2461C383.75 35.207 383.75 35.1875 383.75 35.1484C383.75 35.1289 383.75 35.1094 383.75 35.0898C383.75 35.0508 383.75 35.0313 383.75 34.9922C383.75 34.9727 383.75 34.9727 383.75 34.9531C383.75 34.9336 383.75 34.9336 383.75 34.9141C383.75 34.8945 383.75 34.8555 383.73 34.8359C383.73 34.8164 383.711 34.7773 383.711 34.7578C383.711 34.7383 383.711 34.7383 383.711 34.7187C383.711 34.6992 383.711 34.6992 383.711 34.6797C383.711 34.6602 383.691 34.6211 383.691 34.6016C383.691 34.582 383.672 34.543 383.672 34.5234C383.672 34.5039 383.652 34.4844 383.652 34.4648C383.633 34.4453 383.633 34.4062 383.613 34.3867C383.594 34.3672 383.594 34.3477 383.574 34.3281C383.555 34.3086 383.535 34.2695 383.535 34.25C383.516 34.2305 383.516 34.2109 383.496 34.2109C383.477 34.1914 383.457 34.1523 383.437 34.1328C383.418 34.1133 383.418 34.0937 383.398 34.0937C383.379 34.0742 383.359 34.0547 383.34 34.0352C383.32 34.0156 383.301 33.9961 383.301 33.9961C383.281 33.9766 383.262 33.957 383.242 33.9375L383.223 33.918L367.617 21.4375L367.598 21.418C367.598 21.418 367.598 21.418 367.578 21.418C367.559 21.3984 367.539 21.3789 367.52 21.3789C367.52 21.3789 367.5 21.3789 367.5 21.3594C367.48 21.3398 367.461 21.3398 367.461 21.3398C367.441 21.3203 367.422 21.3203 367.402 21.3008H367.383C367.363 21.2812 367.344 21.2812 367.324 21.2617C367.305 21.2617 367.285 21.2422 367.266 21.2422H367.246C367.227 21.2422 367.207 21.2227 367.188 21.2227C367.168 21.2227 367.129 21.2031 367.109 21.2031C367.09 21.2031 367.07 21.1836 367.051 21.1836C367.031 21.1836 367.012 21.1641 366.973 21.1641L351.348 18.0391C351.25 18.0195 351.152 18 351.035 18H322.812C322.715 18 322.598 18.0195 322.5 18.0391L306.875 21.1641C306.855 21.1641 306.836 21.1836 306.816 21.1836C306.797 21.1836 306.758 21.2031 306.738 21.2031H306.719C306.699 21.2031 306.68 21.2227 306.68 21.2227C306.66 21.2227 306.621 21.2422 306.602 21.2422C306.582 21.2617 306.543 21.2617 306.523 21.2812C306.504 21.3008 306.484 21.3008 306.465 21.3203C306.445 21.3398 306.406 21.3594 306.387 21.3594C306.367 21.3789 306.348 21.3789 306.348 21.3984C306.348 21.3984 306.348 21.3984 306.328 21.3984C306.309 21.418 306.27 21.4375 306.25 21.457C306.23 21.457 306.23 21.4766 306.211 21.4766L306.191 21.4961L290.586 33.918L290.566 33.9375C290.547 33.957 290.527 33.9766 290.508 33.9961C290.488 34.0156 290.469 34.0156 290.469 34.0352C290.449 34.0547 290.43 34.0742 290.41 34.1133C290.391 34.1328 290.391 34.1328 290.371 34.1523C290.352 34.1719 290.332 34.2109 290.313 34.2305C290.293 34.25 290.293 34.2695 290.273 34.2695C290.254 34.2891 290.234 34.3281 290.215 34.3477C290.195 34.3672 290.195 34.3867 290.176 34.4062C290.156 34.4258 290.156 34.4648 290.137 34.4844C290.117 34.5039 290.117 34.5234 290.117 34.543C290.098 34.5625 290.098 34.582 290.098 34.6211C290.098 34.6406 290.078 34.6797 290.078 34.6992C290.078 34.7188 290.078 34.7187 290.078 34.7383C290.078 34.7578 290.078 34.7578 290.078 34.7773C290.078 34.7969 290.059 34.8359 290.059 34.8555C290.059 34.875 290.059 34.9141 290.039 34.9336C290.039 34.9531 290.039 34.9531 290.039 34.9727C290.039 34.9922 290.039 34.9922 290.039 35.0117C290.039 35.0508 290.039 35.0703 290.039 35.1094C290 35.1094 290 35.1289 290 35.1484ZM307.52 24.3672L319.688 28.0195L308.359 38.0977L294.961 34.4453L307.52 24.3672ZM378.809 34.4258L365.41 38.0781L354.082 28L366.25 24.3477L378.809 34.4258ZM315.176 38.957L312.422 38.6445L322.695 29.5039L332.969 40.9297L322.988 39.8164C322.129 39.7187 321.367 40.3438 321.27 41.2031C321.172 42.0625 321.797 42.8242 322.656 42.9219L335.332 44.3281V78.8789C335.332 79.7383 336.035 80.4414 336.895 80.4414C337.754 80.4414 338.457 79.7383 338.457 78.8789V44.3477L362.207 41.7109L336.875 88.1172L311.563 41.6914L314.824 42.0625C314.883 42.0625 314.941 42.0625 315 42.0625C315.781 42.0625 316.465 41.4766 316.543 40.6758C316.641 39.8164 316.035 39.0547 315.176 38.957ZM351.055 29.5234L361.328 38.6641L340.781 40.9297L351.055 29.5234ZM366.055 41.1445L377.949 37.9023L346.602 76.8281L366.055 41.1445ZM336.875 40.5977L326.328 28.8789H347.422L336.875 40.5977ZM307.695 41.1445L327.148 76.8086L295.801 37.9023L307.695 41.1445ZM322.969 21.0664H350.781L360.117 22.9414L350.703 25.7539H323.047L313.633 22.9414L322.969 21.0664Z" fill="#3D365C"/>
<defs>
<filter id="filter0_d_195_589" x="48.2432" y="31.944" width="192.236" height="53.632" filterUnits="userSpaceOnUse" color-interpolation-filters="sRGB">
<feFlood flood-opacity="0" result="BackgroundImageFix"/>
<feColorMatrix in="SourceAlpha" type="matrix" values="0 0 0 0 0 0 0 0 0 0 0 0 0 0 0 0 0 0 127 0" result="hardAlpha"/>
<feOffset dy="4"/>
<feGaussianBlur stdDeviation="2"/>
<feComposite in2="hardAlpha" operator="out"/>
<feColorMatrix type="matrix" values="0 0 0 0 0 0 0 0 0 0 0 0 0 0 0 0 0 0 0.25 0"/>
<feBlend mode="normal" in2="BackgroundImageFix" result="effect1_dropShadow_195_589"/>
<feBlend mode="normal" in="SourceGraphic" in2="effect1_dropShadow_195_589" result="shape"/>
</filter>
</defs>
</svg>
