<svg width="419" height="110" viewBox="0 0 419 110" fill="none" xmlns="http://www.w3.org/2000/svg">
<rect x="2.5" y="2.5" width="414" height="105" fill="#EBFDE8"/>
<rect x="2.5" y="2.5" width="414" height="105" stroke="#3D365C" stroke-width="5"/>
<g filter="url(#filter0_d_195_609)">
<mask id="path-2-outside-1_195_609" maskUnits="userSpaceOnUse" x="53" y="26" width="191" height="53" fill="black">
<rect fill="white" x="53" y="26" width="191" height="53"/>
<path d="M85.779 45.768C85.779 48.0293 85.2457 50.1627 84.179 52.168C83.1123 54.1733 81.4057 55.816 79.059 57.096C76.7123 58.3333 73.7043 58.952 70.035 58.952H61.971V77H54.675V32.52H70.035C73.4483 32.52 76.3283 33.1173 78.675 34.312C81.0643 35.464 82.835 37.0427 83.987 39.048C85.1817 41.0533 85.779 43.2933 85.779 45.768ZM70.035 53C72.8083 53 74.8777 52.3813 76.243 51.144C77.6083 49.864 78.291 48.072 78.291 45.768C78.291 40.904 75.539 38.472 70.035 38.472H61.971V53H70.035ZM108.034 77.576C104.706 77.576 101.698 76.8293 99.0095 75.336C96.3215 73.8 94.2095 71.6667 92.6735 68.936C91.1375 66.1627 90.3695 62.9627 90.3695 59.336C90.3695 55.752 91.1588 52.5733 92.7375 49.8C94.3162 47.0267 96.4708 44.8933 99.2015 43.4C101.932 41.9067 104.983 41.16 108.354 41.16C111.724 41.16 114.775 41.9067 117.506 43.4C120.236 44.8933 122.391 47.0267 123.97 49.8C125.548 52.5733 126.338 55.752 126.338 59.336C126.338 62.92 125.527 66.0987 123.906 68.872C122.284 71.6453 120.066 73.8 117.25 75.336C114.476 76.8293 111.404 77.576 108.034 77.576ZM108.034 71.24C109.911 71.24 111.66 70.792 113.282 69.896C114.946 69 116.29 67.656 117.314 65.864C118.338 64.072 118.85 61.896 118.85 59.336C118.85 56.776 118.359 54.6213 117.378 52.872C116.396 51.08 115.095 49.736 113.474 48.84C111.852 47.944 110.103 47.496 108.226 47.496C106.348 47.496 104.599 47.944 102.978 48.84C101.399 49.736 100.14 51.08 99.2015 52.872C98.2628 54.6213 97.7935 56.776 97.7935 59.336C97.7935 63.1333 98.7535 66.0773 100.674 68.168C102.636 70.216 105.09 71.24 108.034 71.24ZM137.262 37.064C135.939 37.064 134.83 36.616 133.934 35.72C133.038 34.824 132.59 33.7147 132.59 32.392C132.59 31.0693 133.038 29.96 133.934 29.064C134.83 28.168 135.939 27.72 137.262 27.72C138.542 27.72 139.63 28.168 140.526 29.064C141.422 29.96 141.87 31.0693 141.87 32.392C141.87 33.7147 141.422 34.824 140.526 35.72C139.63 36.616 138.542 37.064 137.262 37.064ZM140.846 41.736V77H133.55V41.736H140.846ZM168.217 41.16C170.99 41.16 173.465 41.736 175.641 42.888C177.86 44.04 179.588 45.7467 180.825 48.008C182.062 50.2693 182.681 53 182.681 56.2V77H175.449V57.288C175.449 54.1307 174.66 51.72 173.081 50.056C171.502 48.3493 169.348 47.496 166.617 47.496C163.886 47.496 161.71 48.3493 160.089 50.056C158.51 51.72 157.721 54.1307 157.721 57.288V77H150.425V41.736H157.721V45.768C158.916 44.3173 160.43 43.1867 162.265 42.376C164.142 41.5653 166.126 41.16 168.217 41.16ZM200.5 47.688V67.208C200.5 68.5307 200.798 69.4907 201.396 70.088C202.036 70.6427 203.102 70.92 204.596 70.92H209.076V77H203.316C200.03 77 197.513 76.232 195.764 74.696C194.014 73.16 193.14 70.664 193.14 67.208V47.688H188.98V41.736H193.14V32.968H200.5V41.736H209.076V47.688H200.5ZM228.6 77.576C225.827 77.576 223.331 77.0853 221.112 76.104C218.936 75.08 217.208 73.7147 215.928 72.008C214.648 70.2587 213.965 68.3173 213.88 66.184H221.432C221.56 67.6773 222.264 68.936 223.544 69.96C224.867 70.9413 226.509 71.432 228.472 71.432C230.52 71.432 232.099 71.048 233.208 70.28C234.36 69.4693 234.936 68.4453 234.936 67.208C234.936 65.8853 234.296 64.904 233.016 64.264C231.779 63.624 229.795 62.92 227.064 62.152C224.419 61.4267 222.264 60.7227 220.6 60.04C218.936 59.3573 217.485 58.312 216.248 56.904C215.053 55.496 214.456 53.64 214.456 51.336C214.456 49.4587 215.011 47.752 216.12 46.216C217.229 44.6373 218.808 43.4 220.856 42.504C222.947 41.608 225.336 41.16 228.024 41.16C232.035 41.16 235.256 42.184 237.688 44.232C240.163 46.2373 241.485 48.9893 241.656 52.488H234.36C234.232 50.9093 233.592 49.6507 232.44 48.712C231.288 47.7733 229.731 47.304 227.768 47.304C225.848 47.304 224.376 47.6667 223.352 48.392C222.328 49.1173 221.816 50.0773 221.816 51.272C221.816 52.2107 222.157 53 222.84 53.64C223.523 54.28 224.355 54.792 225.336 55.176C226.317 55.5173 227.768 55.9653 229.688 56.52C232.248 57.2027 234.339 57.9067 235.96 58.632C237.624 59.3147 239.053 60.3387 240.248 61.704C241.443 63.0693 242.061 64.8827 242.104 67.144C242.104 69.1493 241.549 70.9413 240.44 72.52C239.331 74.0987 237.752 75.336 235.704 76.232C233.699 77.128 231.331 77.576 228.6 77.576Z"/>
</mask>
<path d="M85.779 45.768C85.779 48.0293 85.2457 50.1627 84.179 52.168C83.1123 54.1733 81.4057 55.816 79.059 57.096C76.7123 58.3333 73.7043 58.952 70.035 58.952H61.971V77H54.675V32.52H70.035C73.4483 32.52 76.3283 33.1173 78.675 34.312C81.0643 35.464 82.835 37.0427 83.987 39.048C85.1817 41.0533 85.779 43.2933 85.779 45.768ZM70.035 53C72.8083 53 74.8777 52.3813 76.243 51.144C77.6083 49.864 78.291 48.072 78.291 45.768C78.291 40.904 75.539 38.472 70.035 38.472H61.971V53H70.035ZM108.034 77.576C104.706 77.576 101.698 76.8293 99.0095 75.336C96.3215 73.8 94.2095 71.6667 92.6735 68.936C91.1375 66.1627 90.3695 62.9627 90.3695 59.336C90.3695 55.752 91.1588 52.5733 92.7375 49.8C94.3162 47.0267 96.4708 44.8933 99.2015 43.4C101.932 41.9067 104.983 41.16 108.354 41.16C111.724 41.16 114.775 41.9067 117.506 43.4C120.236 44.8933 122.391 47.0267 123.97 49.8C125.548 52.5733 126.338 55.752 126.338 59.336C126.338 62.92 125.527 66.0987 123.906 68.872C122.284 71.6453 120.066 73.8 117.25 75.336C114.476 76.8293 111.404 77.576 108.034 77.576ZM108.034 71.24C109.911 71.24 111.66 70.792 113.282 69.896C114.946 69 116.29 67.656 117.314 65.864C118.338 64.072 118.85 61.896 118.85 59.336C118.85 56.776 118.359 54.6213 117.378 52.872C116.396 51.08 115.095 49.736 113.474 48.84C111.852 47.944 110.103 47.496 108.226 47.496C106.348 47.496 104.599 47.944 102.978 48.84C101.399 49.736 100.14 51.08 99.2015 52.872C98.2628 54.6213 97.7935 56.776 97.7935 59.336C97.7935 63.1333 98.7535 66.0773 100.674 68.168C102.636 70.216 105.09 71.24 108.034 71.24ZM137.262 37.064C135.939 37.064 134.83 36.616 133.934 35.72C133.038 34.824 132.59 33.7147 132.59 32.392C132.59 31.0693 133.038 29.96 133.934 29.064C134.83 28.168 135.939 27.72 137.262 27.72C138.542 27.72 139.63 28.168 140.526 29.064C141.422 29.96 141.87 31.0693 141.87 32.392C141.87 33.7147 141.422 34.824 140.526 35.72C139.63 36.616 138.542 37.064 137.262 37.064ZM140.846 41.736V77H133.55V41.736H140.846ZM168.217 41.16C170.99 41.16 173.465 41.736 175.641 42.888C177.86 44.04 179.588 45.7467 180.825 48.008C182.062 50.2693 182.681 53 182.681 56.2V77H175.449V57.288C175.449 54.1307 174.66 51.72 173.081 50.056C171.502 48.3493 169.348 47.496 166.617 47.496C163.886 47.496 161.71 48.3493 160.089 50.056C158.51 51.72 157.721 54.1307 157.721 57.288V77H150.425V41.736H157.721V45.768C158.916 44.3173 160.43 43.1867 162.265 42.376C164.142 41.5653 166.126 41.16 168.217 41.16ZM200.5 47.688V67.208C200.5 68.5307 200.798 69.4907 201.396 70.088C202.036 70.6427 203.102 70.92 204.596 70.92H209.076V77H203.316C200.03 77 197.513 76.232 195.764 74.696C194.014 73.16 193.14 70.664 193.14 67.208V47.688H188.98V41.736H193.14V32.968H200.5V41.736H209.076V47.688H200.5ZM228.6 77.576C225.827 77.576 223.331 77.0853 221.112 76.104C218.936 75.08 217.208 73.7147 215.928 72.008C214.648 70.2587 213.965 68.3173 213.88 66.184H221.432C221.56 67.6773 222.264 68.936 223.544 69.96C224.867 70.9413 226.509 71.432 228.472 71.432C230.52 71.432 232.099 71.048 233.208 70.28C234.36 69.4693 234.936 68.4453 234.936 67.208C234.936 65.8853 234.296 64.904 233.016 64.264C231.779 63.624 229.795 62.92 227.064 62.152C224.419 61.4267 222.264 60.7227 220.6 60.04C218.936 59.3573 217.485 58.312 216.248 56.904C215.053 55.496 214.456 53.64 214.456 51.336C214.456 49.4587 215.011 47.752 216.12 46.216C217.229 44.6373 218.808 43.4 220.856 42.504C222.947 41.608 225.336 41.16 228.024 41.16C232.035 41.16 235.256 42.184 237.688 44.232C240.163 46.2373 241.485 48.9893 241.656 52.488H234.36C234.232 50.9093 233.592 49.6507 232.44 48.712C231.288 47.7733 229.731 47.304 227.768 47.304C225.848 47.304 224.376 47.6667 223.352 48.392C222.328 49.1173 221.816 50.0773 221.816 51.272C221.816 52.2107 222.157 53 222.84 53.64C223.523 54.28 224.355 54.792 225.336 55.176C226.317 55.5173 227.768 55.9653 229.688 56.52C232.248 57.2027 234.339 57.9067 235.96 58.632C237.624 59.3147 239.053 60.3387 240.248 61.704C241.443 63.0693 242.061 64.8827 242.104 67.144C242.104 69.1493 241.549 70.9413 240.44 72.52C239.331 74.0987 237.752 75.336 235.704 76.232C233.699 77.128 231.331 77.576 228.6 77.576Z" fill="#3D365C"/>
<path d="M84.179 52.168L83.2961 51.6984L83.2961 51.6984L84.179 52.168ZM79.059 57.096L79.5255 57.9807L79.5379 57.9739L79.059 57.096ZM61.971 58.952V57.952H60.971V58.952H61.971ZM61.971 77V78H62.971V77H61.971ZM54.675 77H53.675V78H54.675V77ZM54.675 32.52V31.52H53.675V32.52H54.675ZM78.675 34.312L78.2213 35.2032L78.231 35.2081L78.2407 35.2128L78.675 34.312ZM83.987 39.048L83.1199 39.5461L83.1238 39.553L83.1279 39.5598L83.987 39.048ZM76.243 51.144L76.9145 51.885L76.9208 51.8793L76.9269 51.8735L76.243 51.144ZM61.971 38.472V37.472H60.971V38.472H61.971ZM61.971 53H60.971V54H61.971V53ZM84.779 45.768C84.779 47.8648 84.2862 49.837 83.2961 51.6984L85.0619 52.6376C86.2051 50.4884 86.779 48.1939 86.779 45.768H84.779ZM83.2961 51.6984C82.3366 53.5023 80.7861 55.0149 78.5801 56.2181L79.5379 57.9739C82.0253 56.6171 83.8881 54.8443 85.0619 52.6376L83.2961 51.6984ZM78.5926 56.2114C76.4341 57.3495 73.6008 57.952 70.035 57.952V59.952C73.8079 59.952 76.9905 59.3171 79.5254 57.9806L78.5926 56.2114ZM70.035 57.952H61.971V59.952H70.035V57.952ZM60.971 58.952V77H62.971V58.952H60.971ZM61.971 76H54.675V78H61.971V76ZM55.675 77V32.52H53.675V77H55.675ZM54.675 33.52H70.035V31.52H54.675V33.52ZM70.035 33.52C73.3358 33.52 76.0505 34.098 78.2213 35.2032L79.1287 33.4208C76.6061 32.1366 73.5609 31.52 70.035 31.52V33.52ZM78.2407 35.2128C80.476 36.2905 82.0825 37.7403 83.1199 39.5461L84.8541 38.5499C83.5875 36.345 81.6527 34.6375 79.1093 33.4112L78.2407 35.2128ZM83.1279 39.5598C84.2247 41.4009 84.779 43.4622 84.779 45.768H86.779C86.779 43.1244 86.1386 40.7057 84.8461 38.5362L83.1279 39.5598ZM70.035 54C72.9346 54 75.2914 53.3559 76.9145 51.885L75.5715 50.403C74.4639 51.4067 72.6821 52 70.035 52V54ZM76.9269 51.8735C78.539 50.3622 79.291 48.2799 79.291 45.768H77.291C77.291 47.8641 76.6777 49.3658 75.5591 50.4145L76.9269 51.8735ZM79.291 45.768C79.291 43.1476 78.544 41.0091 76.8892 39.5467C75.258 38.1051 72.9128 37.472 70.035 37.472V39.472C72.6612 39.472 74.444 40.0549 75.5648 41.0453C76.662 42.0149 77.291 43.5244 77.291 45.768H79.291ZM70.035 37.472H61.971V39.472H70.035V37.472ZM60.971 38.472V53H62.971V38.472H60.971ZM61.971 54H70.035V52H61.971V54ZM99.0095 75.336L98.5133 76.2043L98.5239 76.2102L99.0095 75.336ZM92.6735 68.936L91.7987 69.4205L91.8019 69.4263L92.6735 68.936ZM99.2015 43.4L98.7217 42.5226L98.7217 42.5226L99.2015 43.4ZM117.506 43.4L117.985 42.5226L117.985 42.5226L117.506 43.4ZM123.906 68.872L123.042 68.3673L123.042 68.3673L123.906 68.872ZM117.25 75.336L117.724 76.2165L117.728 76.2139L117.25 75.336ZM113.282 69.896L112.807 69.0155L112.798 69.0208L113.282 69.896ZM117.314 65.864L116.445 65.3679L116.445 65.3679L117.314 65.864ZM117.378 52.872L116.5 53.3523L116.505 53.3613L117.378 52.872ZM102.978 48.84L102.494 47.9647L102.484 47.9703L102.978 48.84ZM99.2015 52.872L100.083 53.3448L100.087 53.336L99.2015 52.872ZM100.674 68.168L99.937 68.8444L99.9442 68.8522L99.9515 68.8599L100.674 68.168ZM108.034 76.576C104.861 76.576 102.023 75.8659 99.4951 74.4618L98.5239 76.2102C101.373 77.7927 104.55 78.576 108.034 78.576V76.576ZM99.5056 74.4678C96.9766 73.0226 94.9935 71.0208 93.5451 68.4457L91.8019 69.4263C93.4255 72.3126 95.6664 74.5774 98.5134 76.2042L99.5056 74.4678ZM93.5483 68.4515C92.1056 65.8466 91.3695 62.8179 91.3695 59.336H89.3695C89.3695 63.1075 90.1694 66.4787 91.7987 69.4205L93.5483 68.4515ZM91.3695 59.336C91.3695 55.9037 92.1239 52.8994 93.6066 50.2947L91.8684 49.3053C90.1938 52.2472 89.3695 55.6003 89.3695 59.336H91.3695ZM93.6066 50.2947C95.0959 47.6783 97.1177 45.6794 99.6813 44.2774L98.7217 42.5226C95.824 44.1073 93.5364 46.3751 91.8684 49.3053L93.6066 50.2947ZM99.6813 44.2774C102.253 42.8711 105.136 42.16 108.354 42.16V40.16C104.829 40.16 101.612 40.9422 98.7217 42.5226L99.6813 44.2774ZM108.354 42.16C111.571 42.16 114.454 42.8711 117.026 44.2774L117.985 42.5226C115.095 40.9422 111.878 40.16 108.354 40.16V42.16ZM117.026 44.2774C119.589 45.6794 121.611 47.6783 123.1 50.2947L124.839 49.3053C123.171 46.3751 120.883 44.1073 117.985 42.5226L117.026 44.2774ZM123.1 50.2947C124.583 52.8994 125.338 55.9037 125.338 59.336H127.338C127.338 55.6003 126.513 52.2472 124.839 49.3053L123.1 50.2947ZM125.338 59.336C125.338 62.7636 124.564 65.7643 123.042 68.3673L124.769 69.3767C126.49 66.4331 127.338 63.0764 127.338 59.336H125.338ZM123.042 68.3673C121.513 70.9838 119.427 73.0094 116.771 74.4581L117.728 76.2139C120.704 74.5906 123.056 72.3068 124.769 69.3767L123.042 68.3673ZM116.775 74.4555C114.158 75.8649 111.251 76.576 108.034 76.576V78.576C111.558 78.576 114.794 77.7937 117.724 76.2165L116.775 74.4555ZM108.034 72.24C110.078 72.24 111.994 71.7502 113.765 70.7712L112.798 69.0208C111.327 69.8338 109.744 70.24 108.034 70.24V72.24ZM113.756 70.7765C115.599 69.7837 117.074 68.2991 118.182 66.3601L116.445 65.3679C115.505 67.0129 114.292 68.2163 112.807 69.0155L113.756 70.7765ZM118.182 66.3601C119.311 64.3848 119.85 62.0286 119.85 59.336H117.85C117.85 61.7634 117.364 63.7592 116.445 65.3679L118.182 66.3601ZM119.85 59.336C119.85 56.651 119.335 54.3173 118.25 52.3827L116.505 53.3613C117.383 54.9254 117.85 56.901 117.85 59.336H119.85ZM118.255 52.3917C117.192 50.4511 115.761 48.9618 113.957 47.9648L112.99 49.7152C114.428 50.5102 115.6 51.7089 116.5 53.3523L118.255 52.3917ZM113.957 47.9648C112.186 46.9858 110.27 46.496 108.226 46.496V48.496C109.936 48.496 111.519 48.9022 112.99 49.7152L113.957 47.9648ZM108.226 46.496C106.181 46.496 104.265 46.9858 102.494 47.9648L103.461 49.7152C104.932 48.9022 106.515 48.496 108.226 48.496V46.496ZM102.484 47.9703C100.72 48.9717 99.3329 50.466 98.3157 52.408L100.087 53.336C100.947 51.694 102.078 50.5003 103.471 49.7097L102.484 47.9703ZM98.3203 52.3992C97.2843 54.33 96.7935 56.6574 96.7935 59.336H98.7935C98.7935 56.8946 99.2414 54.9127 100.083 53.3448L98.3203 52.3992ZM96.7935 59.336C96.7935 63.2976 97.7971 66.5143 99.937 68.8444L101.41 67.4916C99.7099 65.6404 98.7935 62.969 98.7935 59.336H96.7935ZM99.9515 68.8599C102.111 71.1129 104.829 72.24 108.034 72.24V70.24C105.35 70.24 103.162 69.3191 101.395 67.4761L99.9515 68.8599ZM133.934 35.72L134.641 35.0129L134.641 35.0129L133.934 35.72ZM133.934 29.064L134.641 29.7711L134.641 29.7711L133.934 29.064ZM140.526 29.064L139.819 29.7711L139.819 29.7711L140.526 29.064ZM140.526 35.72L139.819 35.0129L139.819 35.0129L140.526 35.72ZM140.846 41.736H141.846V40.736H140.846V41.736ZM140.846 77V78H141.846V77H140.846ZM133.55 77H132.55V78H133.55V77ZM133.55 41.736V40.736H132.55V41.736H133.55ZM137.262 36.064C136.192 36.064 135.341 35.7124 134.641 35.0129L133.227 36.4271C134.319 37.5196 135.687 38.064 137.262 38.064V36.064ZM134.641 35.0129C133.942 34.3134 133.59 33.4624 133.59 32.392H131.59C131.59 33.9669 132.134 35.3346 133.227 36.4271L134.641 35.0129ZM133.59 32.392C133.59 31.3216 133.942 30.4706 134.641 29.7711L133.227 28.3569C132.134 29.4494 131.59 30.8171 131.59 32.392H133.59ZM134.641 29.7711C135.341 29.0716 136.192 28.72 137.262 28.72V26.72C135.687 26.72 134.319 27.2644 133.227 28.3569L134.641 29.7711ZM137.262 28.72C138.28 28.72 139.113 29.0648 139.819 29.7711L141.233 28.3569C140.147 27.2712 138.804 26.72 137.262 26.72V28.72ZM139.819 29.7711C140.518 30.4706 140.87 31.3216 140.87 32.392H142.87C142.87 30.8171 142.326 29.4494 141.233 28.3569L139.819 29.7711ZM140.87 32.392C140.87 33.4624 140.518 34.3134 139.819 35.0129L141.233 36.4271C142.326 35.3346 142.87 33.9669 142.87 32.392H140.87ZM139.819 35.0129C139.113 35.7192 138.28 36.064 137.262 36.064V38.064C138.804 38.064 140.147 37.5128 141.233 36.4271L139.819 35.0129ZM139.846 41.736V77H141.846V41.736H139.846ZM140.846 76H133.55V78H140.846V76ZM134.55 77V41.736H132.55V77H134.55ZM133.55 42.736H140.846V40.736H133.55V42.736ZM175.641 42.888L175.173 43.7718L175.18 43.7755L175.641 42.888ZM180.825 48.008L179.948 48.488L179.948 48.488L180.825 48.008ZM182.681 77V78H183.681V77H182.681ZM175.449 77H174.449V78H175.449V77ZM173.081 50.056L172.347 50.7351L172.356 50.7443L173.081 50.056ZM160.089 50.056L159.364 49.3672L159.364 49.3677L160.089 50.056ZM157.721 77V78H158.721V77H157.721ZM150.425 77H149.425V78H150.425V77ZM150.425 41.736V40.736H149.425V41.736H150.425ZM157.721 41.736H158.721V40.736H157.721V41.736ZM157.721 45.768H156.721V48.5553L158.493 46.4037L157.721 45.768ZM162.265 42.376L161.869 41.4579L161.861 41.4613L162.265 42.376ZM168.217 42.16C170.848 42.16 173.159 42.7053 175.173 43.7718L176.109 42.0042C173.771 40.7667 171.133 40.16 168.217 40.16V42.16ZM175.18 43.7755C177.217 44.833 178.803 46.3951 179.948 48.488L181.702 47.528C180.373 45.0982 178.502 43.247 176.102 42.0005L175.18 43.7755ZM179.948 48.488C181.087 50.5707 181.681 53.1278 181.681 56.2H183.681C183.681 52.8722 183.037 49.9679 181.702 47.528L179.948 48.488ZM181.681 56.2V77H183.681V56.2H181.681ZM182.681 76H175.449V78H182.681V76ZM176.449 77V57.288H174.449V77H176.449ZM176.449 57.288C176.449 53.9723 175.619 51.278 173.806 49.3677L172.356 50.7443C173.701 52.162 174.449 54.2891 174.449 57.288H176.449ZM173.815 49.377C172.014 47.4297 169.573 46.496 166.617 46.496V48.496C169.122 48.496 170.991 49.269 172.347 50.735L173.815 49.377ZM166.617 46.496C163.66 46.496 161.205 47.4297 159.364 49.3672L160.814 50.7447C162.216 49.269 164.113 48.496 166.617 48.496V46.496ZM159.364 49.3677C157.551 51.278 156.721 53.9723 156.721 57.288H158.721C158.721 54.2891 159.469 52.162 160.814 50.7443L159.364 49.3677ZM156.721 57.288V77H158.721V57.288H156.721ZM157.721 76H150.425V78H157.721V76ZM151.425 77V41.736H149.425V77H151.425ZM150.425 42.736H157.721V40.736H150.425V42.736ZM156.721 41.736V45.768H158.721V41.736H156.721ZM158.493 46.4037C159.582 45.0815 160.967 44.0427 162.669 43.2907L161.861 41.4613C159.893 42.3307 158.25 43.5532 156.949 45.1323L158.493 46.4037ZM162.661 43.2941C164.411 42.5387 166.26 42.16 168.217 42.16V40.16C165.993 40.16 163.874 40.592 161.869 41.4579L162.661 43.2941ZM200.5 47.688V46.688H199.5V47.688H200.5ZM201.396 70.088L200.688 70.7951L200.714 70.8203L200.741 70.8437L201.396 70.088ZM209.076 70.92H210.076V69.92H209.076V70.92ZM209.076 77V78H210.076V77H209.076ZM195.764 74.696L195.104 75.4474L195.104 75.4474L195.764 74.696ZM193.14 47.688H194.14V46.688H193.14V47.688ZM188.98 47.688H187.98V48.688H188.98V47.688ZM188.98 41.736V40.736H187.98V41.736H188.98ZM193.14 41.736V42.736H194.14V41.736H193.14ZM193.14 32.968V31.968H192.14V32.968H193.14ZM200.5 32.968H201.5V31.968H200.5V32.968ZM200.5 41.736H199.5V42.736H200.5V41.736ZM209.076 41.736H210.076V40.736H209.076V41.736ZM209.076 47.688V48.688H210.076V47.688H209.076ZM199.5 47.688V67.208H201.5V47.688H199.5ZM199.5 67.208C199.5 68.6502 199.821 69.9276 200.688 70.7951L202.103 69.3809C201.775 69.0537 201.5 68.4112 201.5 67.208H199.5ZM200.741 70.8437C201.657 71.6383 203.028 71.92 204.596 71.92V69.92C203.177 69.92 202.414 69.647 202.05 69.3323L200.741 70.8437ZM204.596 71.92H209.076V69.92H204.596V71.92ZM208.076 70.92V77H210.076V70.92H208.076ZM209.076 76H203.316V78H209.076V76ZM203.316 76C200.174 76 197.927 75.2652 196.423 73.9446L195.104 75.4474C197.098 77.1988 199.886 78 203.316 78V76ZM196.423 73.9446C194.978 72.6751 194.14 70.5175 194.14 67.208H192.14C192.14 70.8105 193.051 73.6449 195.104 75.4474L196.423 73.9446ZM194.14 67.208V47.688H192.14V67.208H194.14ZM193.14 46.688H188.98V48.688H193.14V46.688ZM189.98 47.688V41.736H187.98V47.688H189.98ZM188.98 42.736H193.14V40.736H188.98V42.736ZM194.14 41.736V32.968H192.14V41.736H194.14ZM193.14 33.968H200.5V31.968H193.14V33.968ZM199.5 32.968V41.736H201.5V32.968H199.5ZM200.5 42.736H209.076V40.736H200.5V42.736ZM208.076 41.736V47.688H210.076V41.736H208.076ZM209.076 46.688H200.5V48.688H209.076V46.688ZM221.112 76.104L220.686 77.0088L220.697 77.0138L220.707 77.0185L221.112 76.104ZM215.928 72.008L215.121 72.5986L215.128 72.608L215.928 72.008ZM213.88 66.184V65.184H212.839L212.881 66.224L213.88 66.184ZM221.432 66.184L222.428 66.0986L222.35 65.184H221.432V66.184ZM223.544 69.96L222.919 70.7409L222.934 70.7522L222.948 70.7631L223.544 69.96ZM233.208 70.28L233.777 71.1022L233.783 71.0978L233.208 70.28ZM233.016 64.264L232.557 65.1523L232.569 65.1584L233.016 64.264ZM227.064 62.152L227.335 61.1893L227.328 61.1876L227.064 62.152ZM220.6 60.04L220.22 60.9652L220.22 60.9652L220.6 60.04ZM216.248 56.904L215.485 57.551L215.491 57.5576L215.497 57.5641L216.248 56.904ZM216.12 46.216L216.931 46.8015L216.938 46.7909L216.12 46.216ZM220.856 42.504L220.462 41.5848L220.455 41.5878L220.856 42.504ZM237.688 44.232L237.044 44.9969L237.051 45.003L237.058 45.0089L237.688 44.232ZM241.656 52.488V53.488H242.706L242.655 52.4393L241.656 52.488ZM234.36 52.488L233.363 52.5688L233.438 53.488H234.36V52.488ZM232.44 48.712L233.072 47.9368L233.072 47.9368L232.44 48.712ZM223.352 48.392L222.774 47.576L222.774 47.576L223.352 48.392ZM222.84 53.64L222.156 54.3695L222.156 54.3695L222.84 53.64ZM225.336 55.176L224.972 56.1072L224.989 56.1142L225.007 56.1205L225.336 55.176ZM229.688 56.52L229.41 57.4807L229.42 57.4836L229.43 57.4862L229.688 56.52ZM235.96 58.632L235.552 59.5448L235.566 59.5512L235.58 59.5572L235.96 58.632ZM240.248 61.704L239.495 62.3625L239.495 62.3625L240.248 61.704ZM242.104 67.144H243.104V67.1346L243.104 67.1251L242.104 67.144ZM240.44 72.52L239.622 71.9451L239.622 71.9451L240.44 72.52ZM235.704 76.232L235.303 75.3158L235.296 75.319L235.704 76.232ZM228.6 76.576C225.946 76.576 223.591 76.1069 221.517 75.1895L220.707 77.0185C223.071 78.0637 225.707 78.576 228.6 78.576V76.576ZM221.538 75.1992C219.49 74.2357 217.898 72.9682 216.728 71.408L215.128 72.608C216.518 74.4612 218.382 75.9243 220.686 77.0088L221.538 75.1992ZM216.735 71.4175C215.57 69.8259 214.956 68.0756 214.879 66.144L212.881 66.224C212.974 68.559 213.726 70.6914 215.121 72.5985L216.735 71.4175ZM213.88 67.184H221.432V65.184H213.88V67.184ZM220.436 66.2694C220.589 68.0628 221.448 69.5635 222.919 70.7409L224.169 69.1791C223.08 68.3085 222.531 67.2919 222.428 66.0986L220.436 66.2694ZM222.948 70.7631C224.474 71.8954 226.337 72.432 228.472 72.432V70.432C226.682 70.432 225.259 69.9873 224.14 69.1569L222.948 70.7631ZM228.472 72.432C230.625 72.432 232.435 72.0317 233.777 71.1022L232.639 69.4578C231.763 70.0643 230.415 70.432 228.472 70.432V72.432ZM233.783 71.0978C235.159 70.1298 235.936 68.8196 235.936 67.208H233.936C233.936 68.0711 233.561 68.8088 232.633 69.4622L233.783 71.0978ZM235.936 67.208C235.936 66.3785 235.733 65.6072 235.294 64.9337C234.857 64.2647 234.227 63.7514 233.463 63.3696L232.569 65.1584C233.085 65.4166 233.415 65.7139 233.618 66.0263C233.819 66.3341 233.936 66.7149 233.936 67.208H235.936ZM233.475 63.3758C232.144 62.6869 230.078 61.9609 227.335 61.1893L226.793 63.1147C229.511 63.8791 231.414 64.5611 232.557 65.1522L233.475 63.3758ZM227.328 61.1876C224.704 60.4681 222.592 59.7763 220.98 59.1148L220.22 60.9652C221.936 61.669 224.133 62.3853 226.8 63.1164L227.328 61.1876ZM220.98 59.1148C219.464 58.4932 218.139 57.5411 216.999 56.2439L215.497 57.5641C216.832 59.0829 218.408 60.2215 220.22 60.9652L220.98 59.1148ZM217.011 56.257C216.004 55.0711 215.456 53.4636 215.456 51.336H213.456C213.456 53.8164 214.102 55.9209 215.485 57.551L217.011 56.257ZM215.456 51.336C215.456 49.671 215.943 48.1688 216.931 46.8015L215.309 45.6305C214.078 47.3352 213.456 49.2464 213.456 51.336H215.456ZM216.938 46.7909C217.926 45.3845 219.35 44.2546 221.257 43.4202L220.455 41.5878C218.266 42.5454 216.532 43.8902 215.302 45.6411L216.938 46.7909ZM221.25 43.4231C223.196 42.5893 225.447 42.16 228.024 42.16V40.16C225.225 40.16 222.698 40.6267 220.462 41.5849L221.25 43.4231ZM228.024 42.16C231.862 42.16 234.835 43.1371 237.044 44.9969L238.332 43.4671C235.677 41.2309 232.207 40.16 228.024 40.16V42.16ZM237.058 45.0089C239.288 46.8161 240.499 49.2906 240.657 52.5367L242.655 52.4393C242.472 48.6881 241.037 45.6586 238.318 43.4551L237.058 45.0089ZM241.656 51.488H234.36V53.488H241.656V51.488ZM235.357 52.4072C235.208 50.5769 234.45 49.0598 233.072 47.9368L231.808 49.4872C232.734 50.2416 233.256 51.2417 233.363 52.5688L235.357 52.4072ZM233.072 47.9368C231.691 46.8118 229.886 46.304 227.768 46.304V48.304C229.575 48.304 230.885 48.7348 231.808 49.4872L233.072 47.9368ZM227.768 46.304C225.744 46.304 224.035 46.6828 222.774 47.576L223.93 49.208C224.717 48.6506 225.952 48.304 227.768 48.304V46.304ZM222.774 47.576C221.501 48.4776 220.816 49.7341 220.816 51.272H222.816C222.816 50.4205 223.155 49.757 223.93 49.208L222.774 47.576ZM220.816 51.272C220.816 52.4861 221.271 53.5398 222.156 54.3695L223.524 52.9105C223.044 52.4602 222.816 51.9352 222.816 51.272H220.816ZM222.156 54.3695C222.942 55.1068 223.887 55.6827 224.972 56.1072L225.7 54.2448C224.823 53.9013 224.103 53.4532 223.524 52.9105L222.156 54.3695ZM225.007 56.1205C226.015 56.4708 227.486 56.9247 229.41 57.4807L229.966 55.5593C228.05 55.0059 226.62 54.5639 225.665 54.2315L225.007 56.1205ZM229.43 57.4862C231.961 58.1611 233.996 58.8491 235.552 59.5448L236.368 57.7192C234.681 56.9643 232.535 56.2442 229.946 55.5538L229.43 57.4862ZM235.58 59.5572C237.1 60.1805 238.402 61.1127 239.495 62.3625L241.001 61.0455C239.705 59.5646 238.148 58.4488 236.34 57.7068L235.58 59.5572ZM239.495 62.3625C240.499 63.51 241.065 65.0773 241.104 67.1629L243.104 67.1251C243.058 64.6881 242.386 62.6287 241.001 61.0455L239.495 62.3625ZM241.104 67.144C241.104 68.9522 240.608 70.5417 239.622 71.9451L241.258 73.0949C242.491 71.341 243.104 69.3465 243.104 67.144H241.104ZM239.622 71.9451C238.634 73.3515 237.21 74.4814 235.303 75.3158L236.105 77.1482C238.294 76.1906 240.028 74.8458 241.258 73.0949L239.622 71.9451ZM235.296 75.319C233.446 76.1455 231.223 76.576 228.6 76.576V78.576C231.438 78.576 233.951 78.1105 236.112 77.145L235.296 75.319Z" fill="black" mask="url(#path-2-outside-1_195_609)"/>
</g>
<path d="M342.613 62.7764L342.62 62.7716C342.62 62.7716 342.613 62.7764 342.608 62.7789C342.61 62.7789 342.613 62.7789 342.615 62.7789L342.613 62.7764Z" fill="#3D365C"/>
<path d="M342.608 62.7789C331.283 66.1806 321.917 71.1428 316.05 76.9543L315.791 77.2132C317.352 78.6891 319.062 80.0101 320.911 81.1327L321.307 80.6464C322.909 78.6891 324.627 76.7995 326.415 75.0188C331.212 70.238 336.7 66.1008 342.608 62.7789Z" fill="#3D365C"/>
<path d="M343.917 57.7368H306.529C306.982 63.8023 309.234 69.3645 312.769 73.8889L312.931 73.7268C316.563 70.1436 321.29 66.887 326.993 64.0491C331.991 61.5595 337.73 59.4231 343.917 57.7368Z" fill="#3D365C"/>
<path d="M329.584 32.8069C339.719 42.9056 352.474 49.5833 366.466 52.1164C364.779 37.145 352.036 25.5002 336.552 25.5002C332.463 25.5002 328.565 26.3156 325.006 27.7866C326.451 29.5262 327.994 31.2198 329.584 32.8094V32.8069Z" fill="#3D365C"/>
<path d="M316.05 34.0433C321.917 39.8644 331.288 44.8194 342.615 48.2284C336.702 44.8992 331.21 40.7644 326.41 35.9812C324.627 34.2054 322.911 32.3158 321.303 30.3536L320.906 29.8673C319.057 30.9899 317.347 32.3085 315.793 33.7844L316.052 34.0433H316.05Z" fill="#3D365C"/>
<path d="M329.584 78.1907C327.987 79.7802 326.446 81.4738 325.006 83.2134C328.56 84.6844 332.463 85.4998 336.552 85.4998C352.036 85.4998 364.779 73.8526 366.471 58.8763C352.481 61.4095 339.726 68.0871 329.589 78.1858L329.584 78.1907Z" fill="#3D365C"/>
<path d="M326.986 46.9413V46.9461C321.288 44.1081 316.563 40.8491 312.931 37.2708L312.769 37.1087C309.234 41.633 306.982 47.1953 306.529 53.2608H343.91C337.725 51.5745 331.991 49.4381 326.986 46.9413Z" fill="#3D365C"/>
<defs>
<filter id="filter0_d_195_609" x="50.6748" y="27.72" width="195.429" height="57.856" filterUnits="userSpaceOnUse" color-interpolation-filters="sRGB">
<feFlood flood-opacity="0" result="BackgroundImageFix"/>
<feColorMatrix in="SourceAlpha" type="matrix" values="0 0 0 0 0 0 0 0 0 0 0 0 0 0 0 0 0 0 127 0" result="hardAlpha"/>
<feOffset dy="4"/>
<feGaussianBlur stdDeviation="2"/>
<feComposite in2="hardAlpha" operator="out"/>
<feColorMatrix type="matrix" values="0 0 0 0 0 0 0 0 0 0 0 0 0 0 0 0 0 0 0.25 0"/>
<feBlend mode="normal" in2="BackgroundImageFix" result="effect1_dropShadow_195_609"/>
<feBlend mode="normal" in="SourceGraphic" in2="effect1_dropShadow_195_609" result="shape"/>
</filter>
</defs>
</svg>
